<svg xmlns="http://www.w3.org/2000/svg" xmlns:xlink="http://www.w3.org/1999/xlink" width="500" zoomAndPan="magnify" viewBox="0 0 375 374.999991" height="500" preserveAspectRatio="xMidYMid meet" version="1.0"><defs><g/><clipPath id="id1"><path d="M 58.046875 58.046875 L 316.796875 58.046875 L 316.796875 316.796875 L 58.046875 316.796875 Z M 58.046875 58.046875 " clip-rule="nonzero"/></clipPath></defs><rect x="-37.5" width="450" fill="rgb(100%, 100%, 100%)" y="-37.499999" height="449.999989" fill-opacity="1"/><rect x="-37.5" width="450" fill="rgb(100%, 100%, 100%)" y="-37.499999" height="449.999989" fill-opacity="1"/><rect x="-37.5" width="450" fill="rgb(100%, 100%, 100%)" y="-37.499999" height="449.999989" fill-opacity="1"/><rect x="-37.5" width="450" fill="rgb(100%, 100%, 100%)" y="-37.499999" height="449.999989" fill-opacity="1"/><g clip-path="url(#id1)"><path fill="rgb(53.729248%, 55.288696%, 58.428955%)" d="M 308.792969 221.917969 C 305.511719 233.085938 300.503906 243.679688 294.285156 253.4375 C 289.15625 261.378906 283.320312 268.84375 276.765625 275.632812 C 275.917969 276.558594 274.96875 277.390625 274.070312 278.265625 C 273.152344 279.125 272.265625 280.011719 271.328125 280.851562 L 268.488281 283.324219 L 267.066406 284.558594 L 265.59375 285.730469 L 262.648438 288.082031 C 261.652344 288.84375 260.625 289.566406 259.613281 290.3125 C 257.617188 291.839844 255.492188 293.183594 253.414062 294.597656 C 253.113281 294.800781 252.800781 295.011719 252.46875 295.230469 C 252.132812 295.4375 251.78125 295.648438 251.414062 295.867188 C 250.679688 296.308594 249.890625 296.777344 249.046875 297.28125 C 247.386719 298.324219 245.421875 299.308594 243.300781 300.4375 C 242.765625 300.710938 242.230469 301.011719 241.667969 301.28125 C 241.097656 301.546875 240.519531 301.8125 239.929688 302.085938 C 238.753906 302.632812 237.53125 303.195312 236.269531 303.78125 C 233.683594 304.789062 230.988281 306.003906 228.046875 306.945312 C 216.441406 311.152344 201.957031 313.753906 187.421875 313.816406 C 172.886719 313.753906 158.398438 311.152344 146.792969 306.945312 C 143.851562 306.003906 141.160156 304.789062 138.570312 303.78125 C 137.3125 303.195312 136.089844 302.632812 134.910156 302.085938 C 134.320312 301.8125 133.742188 301.546875 133.175781 301.28125 C 132.609375 301.011719 132.074219 300.710938 131.542969 300.4375 C 129.421875 299.308594 127.453125 298.324219 125.792969 297.28125 C 124.953125 296.777344 124.164062 296.308594 123.429688 295.867188 C 123.0625 295.648438 122.710938 295.4375 122.371094 295.230469 C 122.042969 295.011719 121.726562 294.800781 121.429688 294.601562 C 113.53125 289.425781 106.113281 283.546875 99.371094 276.941406 C 92.257812 269.835938 86.039062 261.878906 80.554688 253.441406 C 74.339844 243.679688 69.332031 233.085938 66.050781 221.917969 C 62.632812 210.785156 61.054688 199.101562 60.953125 187.421875 C 61.054688 175.738281 62.632812 164.054688 66.050781 152.925781 C 69.332031 141.757812 74.339844 131.160156 80.554688 121.402344 C 85.683594 113.460938 91.519531 105.996094 98.078125 99.207031 C 98.925781 98.28125 99.871094 97.453125 100.769531 96.578125 C 101.6875 95.714844 102.578125 94.828125 103.511719 93.988281 L 106.351562 91.519531 L 107.773438 90.28125 L 109.25 89.109375 L 112.191406 86.757812 C 113.1875 85.996094 114.21875 85.273438 115.226562 84.527344 C 117.222656 83 119.347656 81.65625 121.425781 80.242188 C 121.726562 80.039062 122.042969 79.828125 122.371094 79.609375 C 122.710938 79.40625 123.0625 79.195312 123.429688 78.972656 C 124.164062 78.535156 124.953125 78.0625 125.792969 77.558594 C 127.453125 76.515625 129.417969 75.535156 131.539062 74.40625 C 132.074219 74.128906 132.609375 73.828125 133.175781 73.558594 C 133.742188 73.296875 134.320312 73.027344 134.910156 72.753906 C 136.089844 72.210938 137.3125 71.644531 138.570312 71.0625 C 141.15625 70.050781 143.851562 68.835938 146.792969 67.894531 C 158.398438 63.6875 172.882812 61.085938 187.421875 61.027344 C 201.957031 61.085938 216.441406 63.6875 228.046875 67.894531 C 230.988281 68.835938 233.683594 70.050781 236.269531 71.0625 C 237.53125 71.644531 238.75 72.210938 239.929688 72.753906 C 240.519531 73.027344 241.097656 73.296875 241.667969 73.558594 C 242.230469 73.828125 242.765625 74.128906 243.300781 74.40625 C 245.421875 75.53125 247.386719 76.515625 249.046875 77.558594 C 249.886719 78.0625 250.675781 78.535156 251.410156 78.972656 C 251.777344 79.191406 252.128906 79.40625 252.46875 79.609375 C 252.796875 79.828125 253.113281 80.039062 253.414062 80.242188 C 261.308594 85.417969 268.726562 91.296875 275.472656 97.898438 C 282.585938 105.003906 288.800781 112.960938 294.285156 121.402344 C 300.503906 131.160156 305.511719 141.757812 308.792969 152.925781 C 312.207031 164.054688 313.785156 175.738281 313.886719 187.421875 C 313.785156 199.101562 312.207031 210.785156 308.792969 221.917969 Z M 316.792969 187.335938 L 316.792969 187.324219 C 316.6875 175.394531 315.082031 163.457031 311.605469 152.078125 C 308.261719 140.660156 303.144531 129.824219 296.761719 119.871094 L 293.695312 115.261719 C 293.695312 115.261719 292.808594 114.019531 291.476562 112.160156 C 290.199219 110.261719 288.238281 107.921875 286.367188 105.515625 C 284.347656 103.234375 282.414062 100.875 280.789062 99.265625 C 279.210938 97.617188 278.15625 96.519531 278.15625 96.519531 C 278.15625 96.519531 277.890625 96.246094 277.410156 95.785156 C 276.929688 95.320312 276.246094 94.660156 275.425781 93.867188 C 273.820312 92.234375 271.496094 90.265625 269.214844 88.25 C 268.042969 87.277344 266.835938 86.34375 265.722656 85.449219 C 265.164062 85.003906 264.625 84.574219 264.113281 84.167969 C 263.582031 83.785156 263.082031 83.421875 262.617188 83.089844 C 260.765625 81.75 259.527344 80.859375 259.527344 80.859375 C 259.527344 80.859375 259.261719 80.640625 258.824219 80.359375 C 258.394531 80.070312 257.820312 79.6875 257.246094 79.300781 C 256.097656 78.53125 254.945312 77.761719 254.945312 77.761719 C 254.640625 77.554688 254.320312 77.339844 253.984375 77.113281 C 253.636719 76.902344 253.277344 76.683594 252.902344 76.457031 C 252.152344 76.007812 251.34375 75.523438 250.484375 75.007812 C 248.789062 73.9375 246.777344 72.925781 244.609375 71.769531 C 244.0625 71.488281 243.515625 71.179688 242.9375 70.902344 C 242.355469 70.632812 241.765625 70.355469 241.164062 70.074219 C 239.957031 69.515625 238.707031 68.9375 237.414062 68.339844 C 234.769531 67.300781 232.011719 66.058594 229.003906 65.089844 C 217.125 60.777344 202.292969 58.105469 187.421875 58.046875 C 172.546875 58.105469 157.714844 60.777344 145.835938 65.09375 C 142.828125 66.058594 140.070312 67.300781 137.425781 68.339844 C 136.132812 68.9375 134.882812 69.515625 133.675781 70.074219 C 133.074219 70.355469 132.484375 70.632812 131.902344 70.902344 C 131.324219 71.179688 130.777344 71.488281 130.230469 71.769531 C 128.0625 72.925781 126.050781 73.9375 124.355469 75.007812 C 123.496094 75.523438 122.6875 76.007812 121.9375 76.457031 C 121.5625 76.683594 121.203125 76.902344 120.859375 77.113281 C 120.519531 77.339844 120.199219 77.554688 119.894531 77.761719 C 119.894531 77.761719 118.746094 78.53125 117.59375 79.300781 C 117.019531 79.6875 116.445312 80.070312 116.015625 80.359375 C 115.582031 80.640625 115.3125 80.859375 115.3125 80.859375 C 115.3125 80.859375 114.078125 81.75 112.222656 83.089844 C 111.761719 83.421875 111.257812 83.785156 110.726562 84.167969 C 110.214844 84.574219 109.675781 85.003906 109.117188 85.449219 C 108.003906 86.34375 106.800781 87.277344 105.628906 88.25 C 103.347656 90.265625 101.019531 92.234375 99.417969 93.867188 C 98.59375 94.660156 97.910156 95.320312 97.433594 95.785156 C 96.953125 96.246094 96.6875 96.519531 96.6875 96.519531 C 96.6875 96.519531 95.632812 97.617188 94.050781 99.265625 C 92.425781 100.875 90.492188 103.234375 88.476562 105.515625 C 86.601562 107.921875 84.640625 110.261719 83.363281 112.160156 C 82.03125 114.023438 81.144531 115.261719 81.144531 115.261719 L 78.078125 119.871094 C 71.695312 129.824219 66.578125 140.664062 63.234375 152.078125 C 59.757812 163.460938 58.15625 175.394531 58.050781 187.324219 L 58.046875 187.335938 L 58.046875 187.507812 L 58.050781 187.515625 C 58.15625 199.445312 59.757812 211.382812 63.234375 222.761719 C 66.578125 234.179688 71.695312 245.015625 78.078125 254.96875 L 81.144531 259.578125 C 81.144531 259.578125 82.035156 260.820312 83.363281 262.679688 C 84.644531 264.578125 86.601562 266.917969 88.476562 269.324219 C 90.492188 271.609375 92.425781 273.964844 94.050781 275.574219 C 95.632812 277.222656 96.6875 278.324219 96.6875 278.324219 C 96.6875 278.324219 96.953125 278.59375 97.433594 279.058594 C 97.910156 279.519531 98.59375 280.183594 99.417969 280.976562 C 101.019531 282.609375 103.347656 284.574219 105.628906 286.59375 C 106.800781 287.566406 108.003906 288.496094 109.117188 289.390625 C 109.675781 289.835938 110.214844 290.265625 110.726562 290.675781 C 111.257812 291.058594 111.761719 291.417969 112.222656 291.753906 C 114.078125 293.089844 115.3125 293.980469 115.3125 293.980469 C 115.3125 293.980469 115.582031 294.199219 116.015625 294.480469 C 116.449219 294.769531 117.023438 295.152344 117.59375 295.539062 C 118.746094 296.308594 119.894531 297.078125 119.894531 297.078125 C 120.203125 297.285156 120.523438 297.503906 120.859375 297.726562 C 121.203125 297.9375 121.5625 298.15625 121.9375 298.382812 C 122.6875 298.835938 123.496094 299.316406 124.355469 299.835938 C 126.054688 300.902344 128.0625 301.914062 130.234375 303.070312 C 130.777344 303.355469 131.328125 303.660156 131.902344 303.9375 C 132.484375 304.210938 133.074219 304.484375 133.675781 304.765625 C 134.882812 305.324219 136.136719 305.90625 137.425781 306.503906 C 140.070312 307.542969 142.828125 308.78125 145.835938 309.75 C 157.714844 314.0625 172.546875 316.734375 187.421875 316.796875 C 202.292969 316.734375 217.125 314.0625 229.003906 309.75 C 232.011719 308.78125 234.773438 307.539062 237.417969 306.5 C 238.707031 305.90625 239.957031 305.324219 241.164062 304.765625 C 241.765625 304.484375 242.359375 304.207031 242.9375 303.9375 C 243.515625 303.660156 244.0625 303.355469 244.609375 303.070312 C 246.78125 301.914062 248.789062 300.902344 250.488281 299.835938 C 251.347656 299.316406 252.152344 298.832031 252.902344 298.382812 C 253.277344 298.15625 253.636719 297.9375 253.984375 297.726562 C 254.320312 297.5 254.640625 297.285156 254.949219 297.078125 C 254.949219 297.078125 256.097656 296.308594 257.246094 295.539062 C 257.820312 295.152344 258.394531 294.769531 258.824219 294.480469 C 259.261719 294.199219 259.527344 293.980469 259.527344 293.980469 C 259.527344 293.980469 260.765625 293.089844 262.617188 291.753906 C 263.082031 291.417969 263.582031 291.058594 264.113281 290.675781 C 264.625 290.265625 265.164062 289.835938 265.722656 289.390625 C 266.835938 288.496094 268.042969 287.566406 269.214844 286.59375 C 271.496094 284.574219 273.820312 282.609375 275.425781 280.976562 C 276.246094 280.183594 276.929688 279.519531 277.410156 279.058594 C 277.890625 278.59375 278.15625 278.324219 278.15625 278.324219 C 278.15625 278.324219 279.210938 277.222656 280.789062 275.574219 C 282.414062 273.964844 284.347656 271.609375 286.367188 269.324219 C 288.238281 266.917969 290.199219 264.578125 291.476562 262.679688 C 292.808594 260.820312 293.695312 259.578125 293.695312 259.578125 L 296.761719 254.96875 C 303.144531 245.015625 308.261719 234.179688 311.605469 222.761719 C 315.082031 211.382812 316.6875 199.445312 316.792969 187.515625 L 316.792969 187.507812 L 316.796875 187.421875 L 316.792969 187.335938 " fill-opacity="1" fill-rule="nonzero"/></g><path fill="rgb(69.40918%, 23.139954%, 23.529053%)" d="M 187.523438 64.523438 C 119.59375 64.523438 64.523438 119.59375 64.523438 187.523438 C 64.523438 255.457031 119.59375 310.523438 187.523438 310.523438 C 255.457031 310.523438 310.523438 255.457031 310.523438 187.523438 C 310.523438 119.59375 255.457031 64.523438 187.523438 64.523438 " fill-opacity="1" fill-rule="nonzero"/><path fill="rgb(100%, 100%, 100%)" d="M 187.632812 89.007812 C 133.164062 89.007812 89.007812 133.164062 89.007812 187.632812 C 89.007812 242.101562 133.164062 286.257812 187.632812 286.257812 C 242.101562 286.257812 286.257812 242.101562 286.257812 187.632812 C 286.257812 133.164062 242.101562 89.007812 187.632812 89.007812 " fill-opacity="1" fill-rule="nonzero"/><path fill="rgb(100%, 100%, 100%)" d="M 81.46875 183.90625 C 79.398438 183.90625 77.71875 185.582031 77.71875 187.65625 C 77.71875 189.726562 79.398438 191.40625 81.46875 191.40625 C 83.539062 191.40625 85.21875 189.726562 85.21875 187.65625 C 85.21875 185.582031 83.539062 183.90625 81.46875 183.90625 " fill-opacity="1" fill-rule="nonzero"/><path fill="rgb(100%, 100%, 100%)" d="M 293.839844 183.90625 C 291.769531 183.90625 290.089844 185.582031 290.089844 187.65625 C 290.089844 189.726562 291.769531 191.40625 293.839844 191.40625 C 295.910156 191.40625 297.589844 189.726562 297.589844 187.65625 C 297.589844 185.582031 295.910156 183.90625 293.839844 183.90625 " fill-opacity="1" fill-rule="nonzero"/><path fill="rgb(100%, 100%, 100%)" d="M 71.734375 183.90625 C 69.660156 183.90625 67.984375 185.582031 67.984375 187.65625 C 67.984375 189.726562 69.660156 191.40625 71.734375 191.40625 C 73.804688 191.40625 75.484375 189.726562 75.484375 187.65625 C 75.484375 185.582031 73.804688 183.90625 71.734375 183.90625 " fill-opacity="1" fill-rule="nonzero"/><path fill="rgb(100%, 100%, 100%)" d="M 303.578125 183.90625 C 301.503906 183.90625 299.828125 185.582031 299.828125 187.65625 C 299.828125 189.726562 301.503906 191.40625 303.578125 191.40625 C 305.648438 191.40625 307.328125 189.726562 307.328125 187.65625 C 307.328125 185.582031 305.648438 183.90625 303.578125 183.90625 " fill-opacity="1" fill-rule="nonzero"/><g fill="rgb(100%, 100%, 100%)" fill-opacity="1"><g transform="translate(99.219637, 128.073892)"><g><path d="M -0.53125 -7.59375 C -0.0390625 -7.882812 0.441406 -8.035156 0.921875 -8.046875 C 1.398438 -8.066406 1.84375 -7.925781 2.25 -7.625 C 2.988281 -7.082031 3.351562 -6.425781 3.34375 -5.65625 C 3.332031 -4.894531 3.054688 -4.148438 2.515625 -3.421875 L 0.765625 -1.046875 L -6.859375 -6.671875 L -5.3125 -8.75 C -4.726562 -9.550781 -4.109375 -10.046875 -3.453125 -10.234375 C -2.804688 -10.429688 -2.171875 -10.300781 -1.546875 -9.84375 C -1.148438 -9.550781 -0.867188 -9.210938 -0.703125 -8.828125 C -0.535156 -8.441406 -0.476562 -8.03125 -0.53125 -7.59375 Z M -2.703125 -5.515625 L -1.921875 -6.5625 C -1.660156 -6.90625 -1.566406 -7.238281 -1.640625 -7.5625 C -1.710938 -7.894531 -1.898438 -8.175781 -2.203125 -8.40625 C -2.546875 -8.65625 -2.878906 -8.734375 -3.203125 -8.640625 C -3.523438 -8.554688 -3.828125 -8.328125 -4.109375 -7.953125 L -4.78125 -7.046875 Z M 1.359375 -4.203125 C 1.660156 -4.609375 1.816406 -5.003906 1.828125 -5.390625 C 1.847656 -5.785156 1.6875 -6.113281 1.34375 -6.375 C 0.976562 -6.632812 0.609375 -6.679688 0.234375 -6.515625 C -0.128906 -6.347656 -0.46875 -6.054688 -0.78125 -5.640625 L -1.53125 -4.640625 L 0.546875 -3.109375 Z M 1.359375 -4.203125 "/></g></g></g><g fill="rgb(100%, 100%, 100%)" fill-opacity="1"><g transform="translate(105.551, 119.672091)"><g><path d="M -1.921875 -11.984375 L -0.84375 -11 L -4.046875 -7.46875 L -2.171875 -5.78125 L 0.671875 -8.921875 L 1.75 -7.9375 L -1.09375 -4.796875 L 0.8125 -3.0625 L 4.140625 -6.71875 L 5.21875 -5.75 L 0.875 -0.96875 L -6.140625 -7.328125 Z M -1.921875 -11.984375 "/></g></g></g><g fill="rgb(100%, 100%, 100%)" fill-opacity="1"><g transform="translate(112.962576, 111.694001)"><g><path d="M -0.4375 -9.796875 C -1.320312 -9.554688 -2 -9.222656 -2.46875 -8.796875 C -2.8125 -8.484375 -3.015625 -8.15625 -3.078125 -7.8125 C -3.140625 -7.476562 -3.046875 -7.179688 -2.796875 -6.921875 C -2.554688 -6.648438 -2.234375 -6.539062 -1.828125 -6.59375 C -1.421875 -6.65625 -0.90625 -6.804688 -0.28125 -7.046875 C 0.164062 -7.234375 0.582031 -7.363281 0.96875 -7.4375 C 1.363281 -7.507812 1.765625 -7.484375 2.171875 -7.359375 C 2.578125 -7.234375 2.96875 -6.960938 3.34375 -6.546875 C 3.6875 -6.171875 3.898438 -5.75 3.984375 -5.28125 C 4.066406 -4.820312 4.015625 -4.335938 3.828125 -3.828125 C 3.640625 -3.328125 3.304688 -2.859375 2.828125 -2.421875 C 2.398438 -2.035156 1.921875 -1.722656 1.390625 -1.484375 C 0.867188 -1.242188 0.34375 -1.09375 -0.1875 -1.03125 L -0.484375 -2.34375 C -0.0859375 -2.382812 0.320312 -2.492188 0.75 -2.671875 C 1.1875 -2.847656 1.539062 -3.0625 1.8125 -3.3125 C 2.15625 -3.625 2.378906 -3.976562 2.484375 -4.375 C 2.597656 -4.769531 2.492188 -5.140625 2.171875 -5.484375 C 1.929688 -5.753906 1.625 -5.878906 1.25 -5.859375 C 0.875 -5.847656 0.425781 -5.738281 -0.09375 -5.53125 C -0.625 -5.3125 -1.085938 -5.15625 -1.484375 -5.0625 C -1.878906 -4.976562 -2.285156 -4.976562 -2.703125 -5.0625 C -3.128906 -5.15625 -3.523438 -5.394531 -3.890625 -5.78125 C -4.398438 -6.351562 -4.617188 -6.992188 -4.546875 -7.703125 C -4.484375 -8.410156 -4.144531 -9.0625 -3.53125 -9.65625 C -3.070312 -10.070312 -2.617188 -10.382812 -2.171875 -10.59375 C -1.722656 -10.8125 -1.265625 -10.960938 -0.796875 -11.046875 Z M -0.4375 -9.796875 "/></g></g></g><g fill="rgb(100%, 100%, 100%)" fill-opacity="1"><g transform="translate(120.373326, 105.107246)"><g><path d="M -0.125 -11.734375 L 0.75 -10.578125 L -1.203125 -9.125 L 3.609375 -2.71875 L 2.390625 -1.796875 L -2.421875 -8.203125 L -4.3125 -6.78125 L -5.1875 -7.9375 Z M -0.125 -11.734375 "/></g></g></g><g fill="rgb(100%, 100%, 100%)" fill-opacity="1"><g transform="translate(133.891138, 95.695328)"><g><path d="M 9.65625 -4.921875 L 5.828125 -2.96875 C 5.554688 -2.75 5.273438 -2.566406 4.984375 -2.421875 C 4.203125 -2.023438 3.382812 -1.851562 2.53125 -1.90625 C 1.675781 -1.957031 0.890625 -2.207031 0.171875 -2.65625 C -0.546875 -3.113281 -1.101562 -3.738281 -1.5 -4.53125 C -1.894531 -5.300781 -2.066406 -6.113281 -2.015625 -6.96875 C -1.960938 -7.820312 -1.707031 -8.613281 -1.25 -9.34375 C -0.800781 -10.070312 -0.1875 -10.632812 0.59375 -11.03125 C 1.363281 -11.425781 2.179688 -11.59375 3.046875 -11.53125 C 3.921875 -11.476562 4.722656 -11.222656 5.453125 -10.765625 C 6.179688 -10.304688 6.738281 -9.695312 7.125 -8.9375 C 7.40625 -8.382812 7.570312 -7.8125 7.625 -7.21875 C 7.675781 -6.625 7.625 -6.046875 7.46875 -5.484375 L 8.984375 -6.25 Z M -0.109375 -5.234375 C 0.160156 -4.691406 0.539062 -4.257812 1.03125 -3.9375 C 1.53125 -3.613281 2.070312 -3.429688 2.65625 -3.390625 C 3.25 -3.359375 3.816406 -3.484375 4.359375 -3.765625 C 4.890625 -4.035156 5.304688 -4.414062 5.609375 -4.90625 C 5.910156 -5.394531 6.070312 -5.929688 6.09375 -6.515625 C 6.125 -7.109375 6.003906 -7.675781 5.734375 -8.21875 C 5.453125 -8.757812 5.0625 -9.1875 4.5625 -9.5 C 4.070312 -9.820312 3.535156 -10.007812 2.953125 -10.0625 C 2.367188 -10.113281 1.804688 -10 1.265625 -9.71875 C 0.734375 -9.445312 0.3125 -9.054688 0 -8.546875 C -0.300781 -8.046875 -0.460938 -7.503906 -0.484375 -6.921875 C -0.515625 -6.335938 -0.390625 -5.773438 -0.109375 -5.234375 Z M -0.109375 -5.234375 "/></g></g></g><g fill="rgb(100%, 100%, 100%)" fill-opacity="1"><g transform="translate(146.312734, 89.579616)"><g><path d="M 1.34375 -4.125 C 1.46875 -3.78125 1.671875 -3.492188 1.953125 -3.265625 C 2.234375 -3.035156 2.5625 -2.890625 2.9375 -2.828125 C 3.3125 -2.765625 3.679688 -2.800781 4.046875 -2.9375 C 4.429688 -3.070312 4.75 -3.28125 5 -3.5625 C 5.25 -3.851562 5.410156 -4.175781 5.484375 -4.53125 C 5.554688 -4.894531 5.53125 -5.253906 5.40625 -5.609375 L 3.328125 -11.296875 L 4.71875 -11.8125 L 6.8125 -6.078125 C 7.039062 -5.453125 7.09375 -4.832031 6.96875 -4.21875 C 6.851562 -3.613281 6.578125 -3.070312 6.140625 -2.59375 C 5.710938 -2.125 5.179688 -1.773438 4.546875 -1.546875 C 3.910156 -1.316406 3.28125 -1.242188 2.65625 -1.328125 C 2.039062 -1.421875 1.488281 -1.65625 1 -2.03125 C 0.507812 -2.414062 0.148438 -2.921875 -0.078125 -3.546875 L -2.171875 -9.28125 L -0.734375 -9.8125 Z M 1.34375 -4.125 "/></g></g></g><g fill="rgb(100%, 100%, 100%)" fill-opacity="1"><g transform="translate(157.572128, 85.60979)"><g><path d="M 5.453125 -3.625 L 2.109375 -2.8125 L 1.765625 -0.4375 L 0.296875 -0.078125 L 2.015625 -10.65625 L 2.09375 -10.671875 L 8.53125 -2.09375 L 6.828125 -1.6875 Z M 4.640625 -4.765625 L 2.78125 -7.390625 L 2.3125 -4.1875 Z M 4.640625 -4.765625 "/></g></g></g><g fill="rgb(100%, 100%, 100%)" fill-opacity="1"><g transform="translate(168.683401, 83.018345)"><g><path d="M 1.484375 -9.765625 L 2.59375 -1.828125 L 7.203125 -2.46875 L 7.40625 -1.03125 L 1.28125 -0.171875 L -0.03125 -9.546875 Z M 1.484375 -9.765625 "/></g></g></g><g fill="rgb(100%, 100%, 100%)" fill-opacity="1"><g transform="translate(179.174518, 81.730728)"><g><path d="M 2.265625 -9.625 L 2.828125 -0.171875 L 1.296875 -0.078125 L 0.734375 -9.53125 Z M 2.265625 -9.625 "/></g></g></g><g fill="rgb(100%, 100%, 100%)" fill-opacity="1"><g transform="translate(185.678555, 81.373331)"><g><path d="M 7.125 -9.34375 L 7.09375 -7.890625 L 4.65625 -7.9375 L 4.515625 0.078125 L 3 0.0625 L 3.140625 -7.953125 L 0.765625 -8 L 0.796875 -9.453125 Z M 7.125 -9.34375 "/></g></g></g><g fill="rgb(100%, 100%, 100%)" fill-opacity="1"><g transform="translate(195.585913, 81.633314)"><g><path d="M 9.921875 -8.359375 L 5.625 -2.421875 L 5.265625 0.625 L 3.765625 0.453125 L 4.125 -2.59375 L 1.421875 -9.375 L 3.265625 -9.15625 L 5.140625 -4.21875 L 8.078125 -8.578125 Z M 9.921875 -8.359375 "/></g></g></g><g fill="rgb(100%, 100%, 100%)" fill-opacity="1"><g transform="translate(213.407108, 84.54132)"><g><path d="M 6.46875 -7.984375 C 7.5 -7.679688 8.226562 -7.1875 8.65625 -6.5 C 9.082031 -5.820312 9.160156 -5.023438 8.890625 -4.109375 C 8.742188 -3.585938 8.503906 -3.125 8.171875 -2.71875 C 7.835938 -2.320312 7.394531 -2.046875 6.84375 -1.890625 C 6.289062 -1.742188 5.648438 -1.773438 4.921875 -1.984375 L 3.625 -2.375 L 2.71875 0.78125 L 1.25 0.359375 L 3.890625 -8.734375 Z M 5.34375 -3.390625 C 5.75 -3.273438 6.097656 -3.269531 6.390625 -3.375 C 6.679688 -3.476562 6.914062 -3.632812 7.09375 -3.84375 C 7.269531 -4.0625 7.390625 -4.28125 7.453125 -4.5 C 7.566406 -4.882812 7.546875 -5.273438 7.390625 -5.671875 C 7.242188 -6.066406 6.875 -6.351562 6.28125 -6.53125 L 4.953125 -6.921875 L 4.046875 -3.78125 Z M 5.34375 -3.390625 "/></g></g></g><g fill="rgb(100%, 100%, 100%)" fill-opacity="1"><g transform="translate(223.247833, 87.495527)"><g><path d="M 6 2.40625 L 5.25 -1.421875 L 5.109375 -1.484375 L 3.84375 -2 L 2.625 1.046875 L 1.203125 0.484375 L 4.734375 -8.296875 L 7.21875 -7.296875 C 8.1875 -6.910156 8.867188 -6.347656 9.265625 -5.609375 C 9.671875 -4.878906 9.691406 -4.066406 9.328125 -3.171875 C 9.109375 -2.628906 8.789062 -2.175781 8.375 -1.8125 C 7.957031 -1.445312 7.453125 -1.238281 6.859375 -1.1875 L 7.640625 3.078125 Z M 4.390625 -3.359375 L 5.640625 -2.84375 C 6.203125 -2.625 6.671875 -2.613281 7.046875 -2.8125 C 7.429688 -3.019531 7.703125 -3.320312 7.859375 -3.71875 C 7.953125 -3.9375 7.992188 -4.175781 7.984375 -4.4375 C 7.972656 -4.707031 7.882812 -4.972656 7.71875 -5.234375 C 7.5625 -5.492188 7.289062 -5.703125 6.90625 -5.859375 L 5.609375 -6.390625 Z M 4.390625 -3.359375 "/></g></g></g><g fill="rgb(100%, 100%, 100%)" fill-opacity="1"><g transform="translate(233.437972, 91.65873)"><g><path d="M 2.875 -3.8125 C 3.28125 -4.570312 3.847656 -5.171875 4.578125 -5.609375 C 5.316406 -6.054688 6.117188 -6.296875 6.984375 -6.328125 C 7.847656 -6.367188 8.664062 -6.179688 9.4375 -5.765625 C 10.195312 -5.347656 10.796875 -4.765625 11.234375 -4.015625 C 11.679688 -3.273438 11.921875 -2.472656 11.953125 -1.609375 C 11.992188 -0.753906 11.8125 0.046875 11.40625 0.796875 C 10.988281 1.566406 10.410156 2.171875 9.671875 2.609375 C 8.941406 3.046875 8.140625 3.28125 7.265625 3.3125 C 6.398438 3.34375 5.585938 3.148438 4.828125 2.734375 C 4.054688 2.316406 3.445312 1.738281 3 1 C 2.550781 0.269531 2.3125 -0.515625 2.28125 -1.359375 C 2.25 -2.210938 2.445312 -3.03125 2.875 -3.8125 Z M 4.25 -3.0625 C 3.957031 -2.519531 3.816406 -1.953125 3.828125 -1.359375 C 3.847656 -0.773438 4.007812 -0.226562 4.3125 0.28125 C 4.613281 0.789062 5.03125 1.191406 5.5625 1.484375 C 6.082031 1.765625 6.628906 1.890625 7.203125 1.859375 C 7.785156 1.828125 8.328125 1.65625 8.828125 1.34375 C 9.335938 1.03125 9.738281 0.601562 10.03125 0.0625 C 10.320312 -0.46875 10.460938 -1.035156 10.453125 -1.640625 C 10.441406 -2.242188 10.285156 -2.796875 9.984375 -3.296875 C 9.679688 -3.796875 9.265625 -4.191406 8.734375 -4.484375 C 8.203125 -4.773438 7.644531 -4.90625 7.0625 -4.875 C 6.488281 -4.84375 5.945312 -4.664062 5.4375 -4.34375 C 4.9375 -4.019531 4.539062 -3.59375 4.25 -3.0625 Z M 4.25 -3.0625 "/></g></g></g><g fill="rgb(100%, 100%, 100%)" fill-opacity="1"><g transform="translate(245.129994, 98.1929)"><g><path d="M 6.53125 -6.984375 L 8.71875 -5.4375 C 9.6875 -4.75 10.351562 -3.988281 10.71875 -3.15625 C 11.082031 -2.320312 11.195312 -1.5 11.0625 -0.6875 C 10.925781 0.125 10.625 0.863281 10.15625 1.53125 C 9.613281 2.289062 8.960938 2.828125 8.203125 3.140625 C 7.453125 3.460938 6.675781 3.570312 5.875 3.46875 C 5.070312 3.363281 4.328125 3.066406 3.640625 2.578125 L 1.0625 0.75 Z M 4.25 1.21875 C 4.800781 1.613281 5.359375 1.859375 5.921875 1.953125 C 6.484375 2.046875 7.023438 1.972656 7.546875 1.734375 C 8.066406 1.503906 8.523438 1.109375 8.921875 0.546875 C 9.359375 -0.0546875 9.59375 -0.648438 9.625 -1.234375 C 9.65625 -1.828125 9.535156 -2.359375 9.265625 -2.828125 C 9.003906 -3.304688 8.660156 -3.695312 8.234375 -4 L 6.953125 -4.90625 L 3.15625 0.453125 Z M 4.25 1.21875 "/></g></g></g><g fill="rgb(100%, 100%, 100%)" fill-opacity="1"><g transform="translate(254.997667, 105.349688)"><g><path d="M 4.265625 -0.765625 C 4.023438 -0.484375 3.867188 -0.164062 3.796875 0.1875 C 3.722656 0.539062 3.742188 0.894531 3.859375 1.25 C 3.984375 1.613281 4.195312 1.925781 4.5 2.1875 C 4.800781 2.457031 5.132812 2.632812 5.5 2.71875 C 5.863281 2.8125 6.222656 2.804688 6.578125 2.703125 C 6.929688 2.597656 7.234375 2.40625 7.484375 2.125 L 11.53125 -2.390625 L 12.640625 -1.40625 L 8.5625 3.15625 C 8.125 3.644531 7.609375 3.976562 7.015625 4.15625 C 6.421875 4.34375 5.8125 4.359375 5.1875 4.203125 C 4.570312 4.046875 4.015625 3.738281 3.515625 3.28125 C 3.003906 2.832031 2.640625 2.3125 2.421875 1.71875 C 2.203125 1.132812 2.148438 0.535156 2.265625 -0.078125 C 2.378906 -0.691406 2.65625 -1.242188 3.09375 -1.734375 L 7.171875 -6.296875 L 8.3125 -5.28125 Z M 4.265625 -0.765625 "/></g></g></g><g fill="rgb(100%, 100%, 100%)" fill-opacity="1"><g transform="translate(263.80509, 113.410641)"><g><path d="M 6.109375 5.703125 C 5.773438 5.617188 5.375 5.457031 4.90625 5.21875 C 4.445312 4.976562 4.023438 4.644531 3.640625 4.21875 C 2.984375 3.488281 2.570312 2.703125 2.40625 1.859375 C 2.238281 1.023438 2.289062 0.222656 2.5625 -0.546875 C 2.84375 -1.328125 3.304688 -2.003906 3.953125 -2.578125 C 4.648438 -3.210938 5.40625 -3.632812 6.21875 -3.84375 C 7.039062 -4.050781 7.84375 -4.03125 8.625 -3.78125 C 9.40625 -3.53125 10.097656 -3.066406 10.703125 -2.390625 C 11.066406 -1.984375 11.351562 -1.554688 11.5625 -1.109375 C 11.769531 -0.660156 11.910156 -0.226562 11.984375 0.1875 L 10.546875 0.6875 C 10.441406 -0.15625 10.144531 -0.847656 9.65625 -1.390625 C 9.289062 -1.796875 8.832031 -2.082031 8.28125 -2.25 C 7.738281 -2.414062 7.179688 -2.429688 6.609375 -2.296875 C 6.035156 -2.160156 5.519531 -1.882812 5.0625 -1.46875 C 4.570312 -1.03125 4.222656 -0.539062 4.015625 0 C 3.816406 0.53125 3.773438 1.070312 3.890625 1.625 C 4.003906 2.1875 4.273438 2.707031 4.703125 3.1875 C 5.003906 3.53125 5.328125 3.789062 5.671875 3.96875 C 6.023438 4.15625 6.367188 4.269531 6.703125 4.3125 Z M 6.109375 5.703125 "/></g></g></g><g fill="rgb(100%, 100%, 100%)" fill-opacity="1"><g transform="translate(271.291061, 121.960826)"><g><path d="M 11.75 0.015625 L 10.578125 0.875 L 9.140625 -1.09375 L 2.671875 3.640625 L 1.78125 2.421875 L 8.25 -2.3125 L 6.84375 -4.234375 L 8.015625 -5.09375 Z M 11.75 0.015625 "/></g></g></g><g fill="rgb(100%, 100%, 100%)" fill-opacity="1"><g transform="translate(125.591241, 284.04518)"><g><path d="M 6.734375 3.78125 C 6.410156 3.789062 6.015625 3.734375 5.546875 3.609375 C 5.085938 3.492188 4.640625 3.285156 4.203125 2.984375 C 3.453125 2.472656 2.90625 1.859375 2.5625 1.140625 C 2.226562 0.429688 2.097656 -0.296875 2.171875 -1.046875 C 2.253906 -1.796875 2.519531 -2.503906 2.96875 -3.171875 C 3.46875 -3.890625 4.054688 -4.429688 4.734375 -4.796875 C 5.421875 -5.160156 6.144531 -5.316406 6.90625 -5.265625 C 7.664062 -5.210938 8.390625 -4.953125 9.078125 -4.484375 C 9.492188 -4.191406 9.84375 -3.867188 10.125 -3.515625 C 10.40625 -3.160156 10.628906 -2.800781 10.796875 -2.4375 L 9.609375 -1.671875 C 9.328125 -2.410156 8.90625 -2.96875 8.34375 -3.34375 C 7.925781 -3.632812 7.457031 -3.789062 6.9375 -3.8125 C 6.425781 -3.84375 5.921875 -3.734375 5.421875 -3.484375 C 4.929688 -3.242188 4.523438 -2.890625 4.203125 -2.421875 C 3.867188 -1.929688 3.664062 -1.414062 3.59375 -0.875 C 3.53125 -0.34375 3.609375 0.15625 3.828125 0.625 C 4.054688 1.101562 4.414062 1.507812 4.90625 1.84375 C 5.25 2.082031 5.597656 2.242188 5.953125 2.328125 C 6.316406 2.421875 6.648438 2.445312 6.953125 2.40625 Z M 6.734375 3.78125 "/></g></g></g><g fill="rgb(100%, 100%, 100%)" fill-opacity="1"><g transform="translate(134.761109, 290.127601)"><g><path d="M 6.46875 -6.421875 L 2.9375 0.0625 L 6.703125 2.109375 L 6.0625 3.296875 L 1.0625 0.578125 L 5.234375 -7.09375 Z M 6.46875 -6.421875 "/></g></g></g><g fill="rgb(100%, 100%, 100%)" fill-opacity="1"><g transform="translate(143.807621, 294.956551)"><g><path d="M 2.25 -3.796875 C 2.550781 -4.535156 3.015625 -5.144531 3.640625 -5.625 C 4.265625 -6.101562 4.96875 -6.40625 5.75 -6.53125 C 6.539062 -6.65625 7.3125 -6.566406 8.0625 -6.265625 C 8.800781 -5.960938 9.410156 -5.488281 9.890625 -4.84375 C 10.378906 -4.207031 10.679688 -3.492188 10.796875 -2.703125 C 10.910156 -1.921875 10.820312 -1.164062 10.53125 -0.4375 C 10.226562 0.320312 9.765625 0.9375 9.140625 1.40625 C 8.515625 1.882812 7.804688 2.179688 7.015625 2.296875 C 6.222656 2.410156 5.457031 2.316406 4.71875 2.015625 C 3.96875 1.710938 3.347656 1.25 2.859375 0.625 C 2.367188 0 2.066406 -0.695312 1.953125 -1.46875 C 1.835938 -2.25 1.9375 -3.023438 2.25 -3.796875 Z M 3.578125 -3.265625 C 3.359375 -2.734375 3.285156 -2.195312 3.359375 -1.65625 C 3.441406 -1.113281 3.644531 -0.625 3.96875 -0.1875 C 4.300781 0.25 4.726562 0.570312 5.25 0.78125 C 5.757812 0.988281 6.273438 1.050781 6.796875 0.96875 C 7.328125 0.882812 7.804688 0.671875 8.234375 0.328125 C 8.660156 -0.015625 8.984375 -0.453125 9.203125 -0.984375 C 9.410156 -1.503906 9.476562 -2.035156 9.40625 -2.578125 C 9.332031 -3.117188 9.132812 -3.609375 8.8125 -4.046875 C 8.488281 -4.484375 8.070312 -4.804688 7.5625 -5.015625 C 7.039062 -5.222656 6.515625 -5.28125 5.984375 -5.1875 C 5.453125 -5.101562 4.96875 -4.890625 4.53125 -4.546875 C 4.101562 -4.210938 3.785156 -3.785156 3.578125 -3.265625 Z M 3.578125 -3.265625 "/></g></g></g><g fill="rgb(100%, 100%, 100%)" fill-opacity="1"><g transform="translate(155.88386, 299.604271)"><g><path d="M 8.546875 -6.65625 L 8.1875 -5.359375 L 6.015625 -5.96875 L 4 1.140625 L 2.65625 0.75 L 4.671875 -6.359375 L 2.578125 -6.953125 L 2.9375 -8.25 Z M 8.546875 -6.65625 "/></g></g></g><g fill="rgb(100%, 100%, 100%)" fill-opacity="1"><g transform="translate(165.209207, 302.169519)"><g><path d="M 8.171875 1.40625 L 6.8125 1.171875 L 7.4375 -2.5 L 3.203125 -3.234375 L 2.578125 0.4375 L 1.1875 0.203125 L 2.671875 -8.40625 L 4.0625 -8.171875 L 3.4375 -4.53125 L 7.671875 -3.796875 L 8.296875 -7.4375 L 9.65625 -7.203125 Z M 8.171875 1.40625 "/></g></g></g><g fill="rgb(100%, 100%, 100%)" fill-opacity="1"><g transform="translate(177.20264, 303.990166)"><g><path d="M 3.296875 -8.484375 L 2.59375 0.21875 L 1.203125 0.09375 L 1.90625 -8.609375 Z M 3.296875 -8.484375 "/></g></g></g><g fill="rgb(100%, 100%, 100%)" fill-opacity="1"><g transform="translate(183.628455, 304.537207)"><g><path d="M 8.828125 -8.84375 L 8.921875 0.203125 L 8.875 0.203125 L 2.515625 -5.828125 L 2.609375 -0.03125 L 1.203125 -0.015625 L 1.09375 -9.046875 L 1.15625 -9.046875 L 7.515625 -2.953125 L 7.4375 -8.828125 Z M 8.828125 -8.84375 "/></g></g></g><g fill="rgb(100%, 100%, 100%)" fill-opacity="1"><g transform="translate(196.460076, 304.196652)"><g><path d="M 7.96875 -1.859375 C 7.757812 -1.609375 7.375 -1.347656 6.8125 -1.078125 C 6.25 -0.816406 5.71875 -0.65625 5.21875 -0.59375 C 4.3125 -0.46875 3.488281 -0.539062 2.75 -0.8125 C 2.007812 -1.09375 1.410156 -1.523438 0.953125 -2.109375 C 0.503906 -2.691406 0.222656 -3.390625 0.109375 -4.203125 C -0.015625 -5.179688 0.0703125 -6.046875 0.375 -6.796875 C 0.6875 -7.554688 1.160156 -8.15625 1.796875 -8.59375 C 2.429688 -9.039062 3.148438 -9.316406 3.953125 -9.421875 C 4.460938 -9.484375 4.945312 -9.484375 5.40625 -9.421875 C 5.863281 -9.367188 6.28125 -9.28125 6.65625 -9.15625 L 6.359375 -7.796875 C 6.097656 -7.898438 5.765625 -7.976562 5.359375 -8.03125 C 4.953125 -8.082031 4.601562 -8.085938 4.3125 -8.046875 C 3.320312 -7.921875 2.578125 -7.546875 2.078125 -6.921875 C 1.578125 -6.296875 1.390625 -5.492188 1.515625 -4.515625 C 1.597656 -3.921875 1.800781 -3.421875 2.125 -3.015625 C 2.445312 -2.609375 2.863281 -2.3125 3.375 -2.125 C 3.894531 -1.9375 4.460938 -1.882812 5.078125 -1.96875 C 5.359375 -2.007812 5.617188 -2.070312 5.859375 -2.15625 C 6.109375 -2.238281 6.316406 -2.335938 6.484375 -2.453125 L 6.296875 -3.890625 L 4.65625 -3.671875 L 4.46875 -5.015625 L 7.5 -5.421875 Z M 7.96875 -1.859375 "/></g></g></g><g fill="rgb(100%, 100%, 100%)" fill-opacity="1"><g transform="translate(214.333624, 301.042518)"><g><path d="M 6.34375 -2 L 5.40625 -2.65625 C 5.269531 -2.28125 5.03125 -1.9375 4.6875 -1.625 C 4.34375 -1.320312 3.914062 -1.09375 3.40625 -0.9375 C 2.882812 -0.769531 2.378906 -0.726562 1.890625 -0.8125 C 1.410156 -0.894531 0.984375 -1.085938 0.609375 -1.390625 C 0.242188 -1.703125 -0.0078125 -2.097656 -0.15625 -2.578125 C -0.332031 -3.148438 -0.289062 -3.71875 -0.03125 -4.28125 C 0.226562 -4.851562 0.640625 -5.328125 1.203125 -5.703125 L 0.859375 -5.9375 C 0.242188 -6.414062 -0.132812 -6.890625 -0.28125 -7.359375 C -0.382812 -7.679688 -0.398438 -8.015625 -0.328125 -8.359375 C -0.253906 -8.710938 -0.0859375 -9.03125 0.171875 -9.3125 C 0.429688 -9.59375 0.78125 -9.800781 1.21875 -9.9375 C 1.675781 -10.082031 2.125 -10.125 2.5625 -10.0625 C 3.007812 -10 3.40625 -9.859375 3.75 -9.640625 L 3.359375 -8.5625 C 3.023438 -8.71875 2.726562 -8.828125 2.46875 -8.890625 C 2.21875 -8.953125 1.992188 -8.953125 1.796875 -8.890625 C 1.503906 -8.796875 1.300781 -8.632812 1.1875 -8.40625 C 1.070312 -8.175781 1.054688 -7.929688 1.140625 -7.671875 C 1.210938 -7.453125 1.335938 -7.257812 1.515625 -7.09375 C 1.703125 -6.925781 1.800781 -6.84375 1.8125 -6.84375 L 4.5625 -4.859375 L 4.6875 -6.9375 L 5.90625 -7.3125 L 5.671875 -4.078125 L 7.90625 -2.484375 Z M 3.21875 -2.171875 C 3.875 -2.378906 4.28125 -2.773438 4.4375 -3.359375 L 2.171875 -5 C 1.785156 -4.84375 1.5 -4.578125 1.3125 -4.203125 C 1.125 -3.835938 1.09375 -3.457031 1.21875 -3.0625 C 1.34375 -2.664062 1.597656 -2.382812 1.984375 -2.21875 C 2.367188 -2.050781 2.78125 -2.035156 3.21875 -2.171875 Z M 3.21875 -2.171875 "/></g></g></g><g fill="rgb(100%, 100%, 100%)" fill-opacity="1"><g transform="translate(231.099969, 294.94716)"><g><path d="M 6.53125 -4.125 C 6.375 -3.832031 6.132812 -3.507812 5.8125 -3.15625 C 5.488281 -2.8125 5.09375 -2.515625 4.625 -2.265625 C 3.8125 -1.859375 3.015625 -1.671875 2.234375 -1.703125 C 1.453125 -1.742188 0.742188 -1.976562 0.109375 -2.40625 C -0.515625 -2.832031 -1.015625 -3.40625 -1.390625 -4.125 C -1.785156 -4.894531 -1.972656 -5.671875 -1.953125 -6.453125 C -1.941406 -7.234375 -1.734375 -7.941406 -1.328125 -8.578125 C -0.929688 -9.222656 -0.363281 -9.738281 0.375 -10.125 C 0.832031 -10.351562 1.285156 -10.503906 1.734375 -10.578125 C 2.179688 -10.660156 2.601562 -10.6875 3 -10.65625 L 3.109375 -9.234375 C 2.316406 -9.347656 1.625 -9.25 1.03125 -8.9375 C 0.570312 -8.707031 0.207031 -8.367188 -0.0625 -7.921875 C -0.332031 -7.472656 -0.472656 -6.976562 -0.484375 -6.4375 C -0.503906 -5.894531 -0.382812 -5.367188 -0.125 -4.859375 C 0.144531 -4.328125 0.5 -3.90625 0.9375 -3.59375 C 1.375 -3.28125 1.851562 -3.109375 2.375 -3.078125 C 2.894531 -3.046875 3.421875 -3.164062 3.953125 -3.4375 C 4.328125 -3.625 4.632812 -3.851562 4.875 -4.125 C 5.125 -4.394531 5.304688 -4.671875 5.421875 -4.953125 Z M 6.53125 -4.125 "/></g></g></g><g fill="rgb(100%, 100%, 100%)" fill-opacity="1"><g transform="translate(240.876798, 289.810692)"><g><path d="M -1.875 -3.984375 C -2.320312 -4.648438 -2.566406 -5.378906 -2.609375 -6.171875 C -2.660156 -6.960938 -2.515625 -7.710938 -2.171875 -8.421875 C -1.835938 -9.140625 -1.335938 -9.726562 -0.671875 -10.1875 C -0.00390625 -10.625 0.722656 -10.863281 1.515625 -10.90625 C 2.316406 -10.957031 3.078125 -10.8125 3.796875 -10.46875 C 4.515625 -10.125 5.097656 -9.625 5.546875 -8.96875 C 5.992188 -8.289062 6.238281 -7.554688 6.28125 -6.765625 C 6.320312 -5.984375 6.164062 -5.234375 5.8125 -4.515625 C 5.46875 -3.796875 4.960938 -3.21875 4.296875 -2.78125 C 3.628906 -2.320312 2.898438 -2.066406 2.109375 -2.015625 C 1.328125 -1.960938 0.582031 -2.101562 -0.125 -2.4375 C -0.832031 -2.78125 -1.414062 -3.296875 -1.875 -3.984375 Z M -0.6875 -4.796875 C -0.375 -4.316406 0.0234375 -3.957031 0.515625 -3.71875 C 1.003906 -3.476562 1.519531 -3.367188 2.0625 -3.390625 C 2.601562 -3.421875 3.109375 -3.59375 3.578125 -3.90625 C 4.035156 -4.207031 4.378906 -4.597656 4.609375 -5.078125 C 4.835938 -5.566406 4.929688 -6.082031 4.890625 -6.625 C 4.847656 -7.175781 4.671875 -7.691406 4.359375 -8.171875 C 4.046875 -8.640625 3.640625 -8.992188 3.140625 -9.234375 C 2.640625 -9.484375 2.117188 -9.59375 1.578125 -9.5625 C 1.035156 -9.539062 0.535156 -9.378906 0.078125 -9.078125 C -0.378906 -8.765625 -0.722656 -8.363281 -0.953125 -7.875 C -1.179688 -7.382812 -1.269531 -6.863281 -1.21875 -6.3125 C -1.175781 -5.769531 -1 -5.265625 -0.6875 -4.796875 Z M -0.6875 -4.796875 "/></g></g></g><path stroke-linecap="butt" transform="matrix(0.75, 0, 0, 0.75, 73.896204, 133.672009)" fill="none" stroke-linejoin="miter" d="M 83.445692 30.202949 L 78.398817 30.202949 L 68.310275 78.499827 L 58.159232 30.202949 L 53.112357 30.202949 L 65.461316 88.999827 L 71.180066 88.999827 Z M 91.591526 30.202949 L 91.591526 88.999827 L 96.716526 88.999827 L 96.716526 30.202949 Z M 132.747779 30.202949 L 127.622779 30.202949 L 127.622779 48.682116 L 112.159236 30.202949 L 107.034235 30.202949 L 107.034235 88.999827 L 112.159236 88.999827 L 112.159236 38.015449 L 127.622779 56.494617 L 127.622779 88.999827 L 132.747779 88.999827 Z M 153.581114 35.062324 L 164.081114 35.062324 L 164.081114 30.202949 L 137.956113 30.202949 L 137.956113 35.062324 L 148.456113 35.062324 L 148.456113 88.999827 L 153.581114 88.999827 Z M 189.534241 79.853993 L 191.383199 88.999827 L 196.5082 88.999827 L 183.976949 30.202949 L 177.763407 30.202949 L 165.930073 88.999827 L 170.872781 88.999827 L 175.591532 64.635242 Z M 187.773824 71.015451 L 176.758198 59.01545 L 180.883199 37.666491 Z M 221.112368 55.057117 L 221.112368 80.671702 C 219.758201 82.869619 217.586326 84.880035 214.898826 84.880035 C 205.997784 84.880035 204.643617 69.926909 204.643617 59.01545 C 204.643617 47.593575 205.997784 33.895657 214.898826 33.895657 C 217.070701 33.895657 220.10716 34.656074 222.872785 39.697741 L 226.73216 37.010241 C 224.226952 31.723782 219.430076 29.015448 215.737368 29.015448 C 204.909242 29.015448 199.35195 39.187324 199.35195 60.515451 C 199.35195 80.182119 204.560284 89.838369 214.055076 89.838369 C 216.987368 89.838369 219.51341 88.489411 221.273826 86.312327 L 221.622785 88.999827 L 226.237368 88.999827 L 226.237368 55.057117 Z M 233.534244 30.202949 L 233.534244 88.999827 L 251.601953 88.999827 L 251.601953 84.036285 L 238.664452 84.036285 L 238.664452 49.770658 L 246.638411 49.770658 L 246.638411 45.2342 L 238.664452 45.2342 L 238.664452 35.062324 L 251.601953 35.062324 L 251.601953 30.202949 Z M 233.534244 30.202949 " stroke="rgb(0.779724%, 0%, 1.568604%)" stroke-width="3.150008" stroke-opacity="1" stroke-miterlimit="4"/><path stroke-linecap="round" transform="matrix(3.760913, 0, 0, 3.75, 161.325184, 218.675347)" fill="none" stroke-linejoin="miter" d="M 0.50037 0.000115736 L 13.459532 0.000115736 " stroke="rgb(9.408569%, 9.408569%, 17.649841%)" stroke-width="1" stroke-opacity="1" stroke-miterlimit="4"/><g fill="rgb(9.408569%, 9.408569%, 17.649841%)" fill-opacity="1"><g transform="translate(152.008193, 247.34641)"><g><path d="M 7.75 -7.828125 L 2.394531 -13.792969 L 1.519531 -13.792969 L 1.519531 0 L 4.273438 0 L 4.273438 -7.578125 L 7.75 -3.933594 L 11.226562 -7.578125 L 11.207031 0 L 13.964844 0 L 13.964844 -13.792969 L 13.109375 -13.792969 Z M 7.75 -7.828125 "/></g></g></g><g fill="rgb(9.408569%, 9.408569%, 17.649841%)" fill-opacity="1"><g transform="translate(167.509032, 247.34641)"><g><path d="M 0.304688 0 L 3.382812 0 L 3.914062 -1.460938 L 8.414062 -1.460938 L 8.96875 0 L 12.027344 0 L 6.308594 -14.078125 L 6.023438 -14.078125 Z M 4.902344 -4.007812 L 6.175781 -7.542969 L 7.410156 -4.007812 Z M 4.902344 -4.007812 "/></g></g></g><g fill="rgb(9.408569%, 9.408569%, 17.649841%)" fill-opacity="1"><g transform="translate(179.913499, 247.34641)"><g><path d="M 8.28125 0 L 11.359375 0 L 8.207031 -5.605469 C 12.195312 -6.761719 11.722656 -13.582031 6.878906 -13.582031 L 1.519531 -13.582031 L 1.519531 0 L 4.238281 0 L 4.238281 -5.1875 L 5.546875 -5.1875 Z M 4.238281 -7.828125 L 4.238281 -10.867188 L 6.628906 -10.867188 C 8.472656 -10.867188 8.472656 -7.828125 6.628906 -7.828125 Z M 4.238281 -7.828125 "/></g></g></g><g fill="rgb(9.408569%, 9.408569%, 17.649841%)" fill-opacity="1"><g transform="translate(191.558125, 247.34641)"><g><path d="M 1.519531 0 L 4.238281 0 L 4.238281 -5.320312 L 7.847656 0 L 11.207031 0 L 6.421875 -6.878906 L 10.828125 -13.582031 L 7.65625 -13.582031 L 4.238281 -8.167969 L 4.238281 -13.582031 L 1.519531 -13.582031 Z M 1.519531 0 "/></g></g></g><g fill="rgb(9.408569%, 9.408569%, 17.649841%)" fill-opacity="1"><g transform="translate(203.031776, 247.34641)"><g><path d="M 8.550781 0 L 8.550781 -2.714844 L 4.238281 -2.714844 L 4.238281 -5.433594 L 7.808594 -5.433594 L 7.808594 -8.148438 L 4.238281 -8.148438 L 4.238281 -10.867188 L 8.320312 -10.867188 L 8.320312 -13.582031 L 1.519531 -13.582031 L 1.519531 0 Z M 8.550781 0 "/></g></g></g><g fill="rgb(9.408569%, 9.408569%, 17.649841%)" fill-opacity="1"><g transform="translate(212.605823, 247.34641)"><g><path d="M 6.476562 0 L 6.476562 -10.867188 L 9.859375 -10.867188 L 9.859375 -13.5625 L 0.378906 -13.5625 L 0.378906 -10.867188 L 3.761719 -10.867188 L 3.761719 0 Z M 6.476562 0 "/></g></g></g><g fill="rgb(0.779724%, 0%, 1.568604%)" fill-opacity="1"><g transform="translate(143.810949, 134.600674)"><g><path d="M 6.625 0.109375 C 5.613281 0.109375 4.695312 -0.140625 3.875 -0.640625 C 3.0625 -1.140625 2.414062 -1.863281 1.9375 -2.8125 C 1.46875 -3.757812 1.234375 -4.882812 1.234375 -6.1875 C 1.234375 -8.425781 1.710938 -10.5 2.671875 -12.40625 C 3.628906 -14.3125 5.039062 -15.84375 6.90625 -17 C 8.78125 -18.15625 11.03125 -18.734375 13.65625 -18.734375 C 14.332031 -18.734375 15.054688 -18.679688 15.828125 -18.578125 C 16.597656 -18.472656 17.300781 -18.316406 17.9375 -18.109375 C 18.351562 -17.992188 18.5625 -17.703125 18.5625 -17.234375 C 18.5625 -16.847656 18.414062 -16.484375 18.125 -16.140625 C 17.84375 -15.804688 17.507812 -15.640625 17.125 -15.640625 C 17.007812 -15.640625 16.921875 -15.648438 16.859375 -15.671875 C 16.085938 -15.835938 15.429688 -15.960938 14.890625 -16.046875 C 14.347656 -16.128906 13.773438 -16.171875 13.171875 -16.171875 C 11.296875 -16.171875 9.703125 -15.71875 8.390625 -14.8125 C 7.078125 -13.90625 6.097656 -12.707031 5.453125 -11.21875 C 4.804688 -9.726562 4.484375 -8.125 4.484375 -6.40625 C 4.484375 -5.15625 4.726562 -4.1875 5.21875 -3.5 C 5.71875 -2.8125 6.363281 -2.46875 7.15625 -2.46875 C 8.050781 -2.46875 8.835938 -2.835938 9.515625 -3.578125 C 10.191406 -4.316406 10.8125 -5.507812 11.375 -7.15625 C 11.9375 -8.8125 12.488281 -11.050781 13.03125 -13.875 C 13.125 -14.289062 13.300781 -14.570312 13.5625 -14.71875 C 13.832031 -14.863281 14.1875 -14.9375 14.625 -14.9375 C 15.664062 -14.9375 16.1875 -14.597656 16.1875 -13.921875 C 16.1875 -13.804688 16.164062 -13.660156 16.125 -13.484375 C 15.738281 -12.046875 15.390625 -10.460938 15.078125 -8.734375 C 14.765625 -7.003906 14.609375 -5.691406 14.609375 -4.796875 C 14.609375 -3.992188 14.722656 -3.410156 14.953125 -3.046875 C 15.191406 -2.691406 15.554688 -2.515625 16.046875 -2.515625 C 16.515625 -2.515625 16.960938 -2.671875 17.390625 -2.984375 C 17.816406 -3.304688 18.351562 -3.851562 19 -4.625 C 19.175781 -4.820312 19.375 -4.921875 19.59375 -4.921875 C 19.789062 -4.921875 19.941406 -4.832031 20.046875 -4.65625 C 20.160156 -4.476562 20.21875 -4.238281 20.21875 -3.9375 C 20.21875 -3.363281 20.078125 -2.90625 19.796875 -2.5625 C 19.078125 -1.695312 18.367188 -1.035156 17.671875 -0.578125 C 16.984375 -0.117188 16.140625 0.109375 15.140625 0.109375 C 14.109375 0.109375 13.273438 -0.1875 12.640625 -0.78125 C 12.003906 -1.375 11.601562 -2.21875 11.4375 -3.3125 C 10.351562 -1.03125 8.75 0.109375 6.625 0.109375 Z M 6.625 0.109375 "/></g></g></g><g fill="rgb(0.779724%, 0%, 1.568604%)" fill-opacity="1"><g transform="translate(161.164379, 134.600674)"><g><path d="M 2.625 0.109375 C 2.070312 0.109375 1.679688 -0.179688 1.453125 -0.765625 C 1.222656 -1.359375 1.109375 -2.300781 1.109375 -3.59375 C 1.109375 -5.507812 1.378906 -7.332031 1.921875 -9.0625 C 2.054688 -9.488281 2.273438 -9.800781 2.578125 -10 C 2.878906 -10.195312 3.300781 -10.296875 3.84375 -10.296875 C 4.132812 -10.296875 4.335938 -10.257812 4.453125 -10.1875 C 4.578125 -10.113281 4.640625 -9.972656 4.640625 -9.765625 C 4.640625 -9.523438 4.53125 -8.992188 4.3125 -8.171875 C 4.164062 -7.585938 4.046875 -7.078125 3.953125 -6.640625 C 3.867188 -6.203125 3.796875 -5.660156 3.734375 -5.015625 C 4.128906 -6.160156 4.601562 -7.128906 5.15625 -7.921875 C 5.707031 -8.722656 6.273438 -9.316406 6.859375 -9.703125 C 7.441406 -10.097656 7.988281 -10.296875 8.5 -10.296875 C 9.019531 -10.296875 9.382812 -10.175781 9.59375 -9.9375 C 9.8125 -9.707031 9.921875 -9.347656 9.921875 -8.859375 C 9.921875 -8.390625 9.78125 -7.535156 9.5 -6.296875 C 9.382812 -5.765625 9.300781 -5.367188 9.25 -5.109375 C 9.988281 -6.921875 10.804688 -8.238281 11.703125 -9.0625 C 12.609375 -9.882812 13.453125 -10.296875 14.234375 -10.296875 C 15.191406 -10.296875 15.671875 -9.816406 15.671875 -8.859375 C 15.671875 -8.285156 15.503906 -7.25 15.171875 -5.75 C 14.898438 -4.46875 14.765625 -3.617188 14.765625 -3.203125 C 14.765625 -2.609375 14.976562 -2.3125 15.40625 -2.3125 C 15.695312 -2.3125 16.046875 -2.492188 16.453125 -2.859375 C 16.859375 -3.222656 17.398438 -3.8125 18.078125 -4.625 C 18.253906 -4.820312 18.453125 -4.921875 18.671875 -4.921875 C 18.859375 -4.921875 19.003906 -4.832031 19.109375 -4.65625 C 19.222656 -4.476562 19.28125 -4.238281 19.28125 -3.9375 C 19.28125 -3.34375 19.144531 -2.882812 18.875 -2.5625 C 18.238281 -1.78125 17.554688 -1.140625 16.828125 -0.640625 C 16.097656 -0.140625 15.269531 0.109375 14.34375 0.109375 C 13.59375 0.109375 13.023438 -0.101562 12.640625 -0.53125 C 12.253906 -0.96875 12.0625 -1.601562 12.0625 -2.4375 C 12.0625 -2.84375 12.164062 -3.578125 12.375 -4.640625 C 12.5625 -5.566406 12.65625 -6.207031 12.65625 -6.5625 C 12.65625 -6.800781 12.578125 -6.921875 12.421875 -6.921875 C 12.222656 -6.921875 11.945312 -6.671875 11.59375 -6.171875 C 11.238281 -5.679688 10.882812 -5.03125 10.53125 -4.21875 C 10.1875 -3.40625 9.898438 -2.550781 9.671875 -1.65625 C 9.515625 -0.945312 9.328125 -0.472656 9.109375 -0.234375 C 8.898438 -0.00390625 8.5625 0.109375 8.09375 0.109375 C 7.601562 0.109375 7.234375 -0.117188 6.984375 -0.578125 C 6.742188 -1.046875 6.625 -1.613281 6.625 -2.28125 C 6.625 -2.832031 6.695312 -3.640625 6.84375 -4.703125 C 6.96875 -5.648438 7.03125 -6.269531 7.03125 -6.5625 C 7.03125 -6.800781 6.945312 -6.921875 6.78125 -6.921875 C 6.5625 -6.921875 6.28125 -6.65625 5.9375 -6.125 C 5.601562 -5.59375 5.273438 -4.910156 4.953125 -4.078125 C 4.640625 -3.253906 4.390625 -2.445312 4.203125 -1.65625 C 4.035156 -0.96875 3.84375 -0.5 3.625 -0.25 C 3.414062 -0.0078125 3.082031 0.109375 2.625 0.109375 Z M 2.625 0.109375 "/></g></g></g><g fill="rgb(0.779724%, 0%, 1.568604%)" fill-opacity="1"><g transform="translate(177.590529, 134.600674)"><g><path d="M 10.921875 -4.921875 C 11.109375 -4.921875 11.253906 -4.832031 11.359375 -4.65625 C 11.472656 -4.476562 11.53125 -4.238281 11.53125 -3.9375 C 11.53125 -3.34375 11.390625 -2.882812 11.109375 -2.5625 C 10.566406 -1.894531 9.796875 -1.28125 8.796875 -0.71875 C 7.804688 -0.164062 6.742188 0.109375 5.609375 0.109375 C 4.066406 0.109375 2.867188 -0.304688 2.015625 -1.140625 C 1.160156 -1.984375 0.734375 -3.132812 0.734375 -4.59375 C 0.734375 -5.613281 0.945312 -6.5625 1.375 -7.4375 C 1.800781 -8.3125 2.390625 -9.003906 3.140625 -9.515625 C 3.898438 -10.035156 4.757812 -10.296875 5.71875 -10.296875 C 6.570312 -10.296875 7.253906 -10.039062 7.765625 -9.53125 C 8.285156 -9.019531 8.546875 -8.332031 8.546875 -7.46875 C 8.546875 -6.445312 8.179688 -5.570312 7.453125 -4.84375 C 6.722656 -4.113281 5.488281 -3.535156 3.75 -3.109375 C 4.125 -2.429688 4.828125 -2.09375 5.859375 -2.09375 C 6.515625 -2.09375 7.265625 -2.320312 8.109375 -2.78125 C 8.960938 -3.25 9.695312 -3.863281 10.3125 -4.625 C 10.488281 -4.820312 10.691406 -4.921875 10.921875 -4.921875 Z M 5.34375 -8.125 C 4.800781 -8.125 4.34375 -7.804688 3.96875 -7.171875 C 3.59375 -6.546875 3.40625 -5.78125 3.40625 -4.875 L 3.40625 -4.84375 C 4.269531 -5.039062 4.953125 -5.347656 5.453125 -5.765625 C 5.953125 -6.179688 6.203125 -6.660156 6.203125 -7.203125 C 6.203125 -7.484375 6.125 -7.707031 5.96875 -7.875 C 5.820312 -8.039062 5.613281 -8.125 5.34375 -8.125 Z M 5.34375 -8.125 "/></g></g></g><g fill="rgb(0.779724%, 0%, 1.568604%)" fill-opacity="1"><g transform="translate(186.267245, 134.600674)"><g><path d="M 2.625 0.109375 C 2.070312 0.109375 1.679688 -0.179688 1.453125 -0.765625 C 1.222656 -1.359375 1.109375 -2.300781 1.109375 -3.59375 C 1.109375 -5.507812 1.378906 -7.332031 1.921875 -9.0625 C 2.054688 -9.488281 2.273438 -9.800781 2.578125 -10 C 2.878906 -10.195312 3.300781 -10.296875 3.84375 -10.296875 C 4.132812 -10.296875 4.335938 -10.257812 4.453125 -10.1875 C 4.578125 -10.113281 4.640625 -9.972656 4.640625 -9.765625 C 4.640625 -9.523438 4.53125 -8.992188 4.3125 -8.171875 C 4.164062 -7.585938 4.046875 -7.070312 3.953125 -6.625 C 3.867188 -6.1875 3.796875 -5.644531 3.734375 -5 C 4.222656 -6.257812 4.769531 -7.285156 5.375 -8.078125 C 5.976562 -8.878906 6.566406 -9.445312 7.140625 -9.78125 C 7.722656 -10.125 8.257812 -10.296875 8.75 -10.296875 C 9.707031 -10.296875 10.1875 -9.816406 10.1875 -8.859375 C 10.1875 -8.671875 10.117188 -8.207031 9.984375 -7.46875 C 9.867188 -6.875 9.8125 -6.503906 9.8125 -6.359375 C 9.8125 -5.847656 9.992188 -5.59375 10.359375 -5.59375 C 10.773438 -5.59375 11.304688 -5.914062 11.953125 -6.5625 C 12.140625 -6.75 12.335938 -6.84375 12.546875 -6.84375 C 12.742188 -6.84375 12.894531 -6.757812 13 -6.59375 C 13.113281 -6.425781 13.171875 -6.203125 13.171875 -5.921875 C 13.171875 -5.378906 13.019531 -4.953125 12.71875 -4.640625 C 12.3125 -4.210938 11.832031 -3.847656 11.28125 -3.546875 C 10.726562 -3.242188 10.140625 -3.09375 9.515625 -3.09375 C 8.734375 -3.09375 8.140625 -3.289062 7.734375 -3.6875 C 7.335938 -4.082031 7.140625 -4.617188 7.140625 -5.296875 C 7.140625 -5.523438 7.160156 -5.75 7.203125 -5.96875 C 7.234375 -6.257812 7.25 -6.457031 7.25 -6.5625 C 7.25 -6.800781 7.164062 -6.921875 7 -6.921875 C 6.78125 -6.921875 6.488281 -6.671875 6.125 -6.171875 C 5.769531 -5.679688 5.414062 -5.03125 5.0625 -4.21875 C 4.707031 -3.40625 4.421875 -2.550781 4.203125 -1.65625 C 4.035156 -0.96875 3.84375 -0.5 3.625 -0.25 C 3.414062 -0.0078125 3.082031 0.109375 2.625 0.109375 Z M 2.625 0.109375 "/></g></g></g><g fill="rgb(0.779724%, 0%, 1.568604%)" fill-opacity="1"><g transform="translate(196.312811, 134.600674)"><g><path d="M 3.953125 -11.75 C 3.335938 -11.75 2.875 -11.890625 2.5625 -12.171875 C 2.25 -12.460938 2.09375 -12.867188 2.09375 -13.390625 C 2.09375 -13.898438 2.296875 -14.328125 2.703125 -14.671875 C 3.109375 -15.023438 3.613281 -15.203125 4.21875 -15.203125 C 4.757812 -15.203125 5.195312 -15.066406 5.53125 -14.796875 C 5.875 -14.535156 6.046875 -14.160156 6.046875 -13.671875 C 6.046875 -13.085938 5.851562 -12.617188 5.46875 -12.265625 C 5.09375 -11.921875 4.585938 -11.75 3.953125 -11.75 Z M 3.78125 0.109375 C 2.820312 0.109375 2.125 -0.226562 1.6875 -0.90625 C 1.25 -1.582031 1.03125 -2.476562 1.03125 -3.59375 C 1.03125 -4.257812 1.113281 -5.109375 1.28125 -6.140625 C 1.457031 -7.179688 1.675781 -8.15625 1.9375 -9.0625 C 2.070312 -9.53125 2.25 -9.851562 2.46875 -10.03125 C 2.695312 -10.207031 3.050781 -10.296875 3.53125 -10.296875 C 4.28125 -10.296875 4.65625 -10.046875 4.65625 -9.546875 C 4.65625 -9.171875 4.515625 -8.316406 4.234375 -6.984375 C 3.890625 -5.359375 3.71875 -4.257812 3.71875 -3.6875 C 3.71875 -3.25 3.773438 -2.910156 3.890625 -2.671875 C 4.003906 -2.429688 4.203125 -2.3125 4.484375 -2.3125 C 4.742188 -2.3125 5.070312 -2.492188 5.46875 -2.859375 C 5.875 -3.234375 6.40625 -3.820312 7.0625 -4.625 C 7.238281 -4.820312 7.441406 -4.921875 7.671875 -4.921875 C 7.859375 -4.921875 8.003906 -4.832031 8.109375 -4.65625 C 8.222656 -4.476562 8.28125 -4.238281 8.28125 -3.9375 C 8.28125 -3.34375 8.140625 -2.882812 7.859375 -2.5625 C 6.398438 -0.78125 5.039062 0.109375 3.78125 0.109375 Z M 3.78125 0.109375 "/></g></g></g><g fill="rgb(0.779724%, 0%, 1.568604%)" fill-opacity="1"><g transform="translate(201.744039, 134.600674)"><g><path d="M 5.28125 0.109375 C 3.832031 0.109375 2.707031 -0.296875 1.90625 -1.109375 C 1.101562 -1.929688 0.703125 -3.015625 0.703125 -4.359375 C 0.703125 -5.546875 0.9375 -6.585938 1.40625 -7.484375 C 1.882812 -8.390625 2.5 -9.082031 3.25 -9.5625 C 4 -10.050781 4.785156 -10.296875 5.609375 -10.296875 C 6.421875 -10.296875 7.050781 -10.054688 7.5 -9.578125 C 7.945312 -9.097656 8.171875 -8.484375 8.171875 -7.734375 C 8.171875 -7.117188 8.035156 -6.597656 7.765625 -6.171875 C 7.492188 -5.742188 7.132812 -5.53125 6.6875 -5.53125 C 6.414062 -5.53125 6.191406 -5.59375 6.015625 -5.71875 C 5.847656 -5.851562 5.765625 -6.039062 5.765625 -6.28125 C 5.765625 -6.375 5.78125 -6.488281 5.8125 -6.625 C 5.84375 -6.757812 5.863281 -6.859375 5.875 -6.921875 C 5.945312 -7.140625 5.984375 -7.34375 5.984375 -7.53125 C 5.984375 -7.726562 5.9375 -7.875 5.84375 -7.96875 C 5.75 -8.070312 5.613281 -8.125 5.4375 -8.125 C 5.09375 -8.125 4.773438 -7.972656 4.484375 -7.671875 C 4.191406 -7.367188 3.957031 -6.957031 3.78125 -6.4375 C 3.601562 -5.925781 3.515625 -5.363281 3.515625 -4.75 C 3.515625 -3.039062 4.257812 -2.1875 5.75 -2.1875 C 6.351562 -2.1875 7.003906 -2.390625 7.703125 -2.796875 C 8.398438 -3.203125 9.085938 -3.8125 9.765625 -4.625 C 9.941406 -4.820312 10.140625 -4.921875 10.359375 -4.921875 C 10.554688 -4.921875 10.707031 -4.832031 10.8125 -4.65625 C 10.925781 -4.476562 10.984375 -4.238281 10.984375 -3.9375 C 10.984375 -3.375 10.84375 -2.914062 10.5625 -2.5625 C 9.863281 -1.707031 9.03125 -1.046875 8.0625 -0.578125 C 7.101562 -0.117188 6.175781 0.109375 5.28125 0.109375 Z M 5.28125 0.109375 "/></g></g></g><g fill="rgb(0.779724%, 0%, 1.568604%)" fill-opacity="1"><g transform="translate(209.868806, 134.600674)"><g><path d="M 3.78125 0.109375 C 2.863281 0.109375 2.128906 -0.21875 1.578125 -0.875 C 1.035156 -1.539062 0.765625 -2.410156 0.765625 -3.484375 C 0.765625 -4.671875 1.035156 -5.789062 1.578125 -6.84375 C 2.128906 -7.894531 2.859375 -8.738281 3.765625 -9.375 C 4.671875 -10.019531 5.632812 -10.34375 6.65625 -10.34375 C 6.976562 -10.34375 7.191406 -10.28125 7.296875 -10.15625 C 7.410156 -10.03125 7.503906 -9.804688 7.578125 -9.484375 C 7.890625 -9.535156 8.210938 -9.5625 8.546875 -9.5625 C 9.273438 -9.5625 9.640625 -9.304688 9.640625 -8.796875 C 9.640625 -8.484375 9.523438 -7.742188 9.296875 -6.578125 C 8.960938 -4.890625 8.796875 -3.710938 8.796875 -3.046875 C 8.796875 -2.828125 8.847656 -2.648438 8.953125 -2.515625 C 9.066406 -2.378906 9.210938 -2.3125 9.390625 -2.3125 C 9.671875 -2.3125 10.007812 -2.492188 10.40625 -2.859375 C 10.800781 -3.222656 11.335938 -3.8125 12.015625 -4.625 C 12.191406 -4.820312 12.390625 -4.921875 12.609375 -4.921875 C 12.804688 -4.921875 12.957031 -4.832031 13.0625 -4.65625 C 13.175781 -4.476562 13.234375 -4.238281 13.234375 -3.9375 C 13.234375 -3.34375 13.09375 -2.882812 12.8125 -2.5625 C 12.207031 -1.8125 11.566406 -1.175781 10.890625 -0.65625 C 10.210938 -0.144531 9.554688 0.109375 8.921875 0.109375 C 8.441406 0.109375 8 -0.0546875 7.59375 -0.390625 C 7.1875 -0.722656 6.878906 -1.175781 6.671875 -1.75 C 5.910156 -0.507812 4.945312 0.109375 3.78125 0.109375 Z M 4.578125 -2.125 C 4.898438 -2.125 5.207031 -2.3125 5.5 -2.6875 C 5.789062 -3.070312 6.003906 -3.582031 6.140625 -4.21875 L 6.953125 -8.28125 C 6.335938 -8.269531 5.769531 -8.039062 5.25 -7.59375 C 4.726562 -7.144531 4.3125 -6.550781 4 -5.8125 C 3.6875 -5.070312 3.53125 -4.289062 3.53125 -3.46875 C 3.53125 -3.007812 3.625 -2.671875 3.8125 -2.453125 C 4 -2.234375 4.253906 -2.125 4.578125 -2.125 Z M 4.578125 -2.125 "/></g></g></g><g fill="rgb(0.779724%, 0%, 1.568604%)" fill-opacity="1"><g transform="translate(220.245541, 134.600674)"><g><path d="M 2.625 0.109375 C 2.070312 0.109375 1.679688 -0.179688 1.453125 -0.765625 C 1.222656 -1.359375 1.109375 -2.300781 1.109375 -3.59375 C 1.109375 -5.507812 1.378906 -7.332031 1.921875 -9.0625 C 2.054688 -9.488281 2.273438 -9.800781 2.578125 -10 C 2.878906 -10.195312 3.300781 -10.296875 3.84375 -10.296875 C 4.132812 -10.296875 4.335938 -10.257812 4.453125 -10.1875 C 4.578125 -10.113281 4.640625 -9.972656 4.640625 -9.765625 C 4.640625 -9.523438 4.53125 -8.992188 4.3125 -8.171875 C 4.164062 -7.585938 4.046875 -7.070312 3.953125 -6.625 C 3.867188 -6.1875 3.796875 -5.644531 3.734375 -5 C 4.222656 -6.257812 4.769531 -7.285156 5.375 -8.078125 C 5.976562 -8.878906 6.566406 -9.445312 7.140625 -9.78125 C 7.722656 -10.125 8.257812 -10.296875 8.75 -10.296875 C 9.707031 -10.296875 10.1875 -9.816406 10.1875 -8.859375 C 10.1875 -8.285156 10.023438 -7.25 9.703125 -5.75 C 9.421875 -4.46875 9.28125 -3.617188 9.28125 -3.203125 C 9.28125 -2.609375 9.492188 -2.3125 9.921875 -2.3125 C 10.210938 -2.3125 10.5625 -2.492188 10.96875 -2.859375 C 11.375 -3.222656 11.914062 -3.8125 12.59375 -4.625 C 12.769531 -4.820312 12.96875 -4.921875 13.1875 -4.921875 C 13.382812 -4.921875 13.535156 -4.832031 13.640625 -4.65625 C 13.753906 -4.476562 13.8125 -4.238281 13.8125 -3.9375 C 13.8125 -3.34375 13.671875 -2.882812 13.390625 -2.5625 C 12.753906 -1.78125 12.070312 -1.140625 11.34375 -0.640625 C 10.613281 -0.140625 9.785156 0.109375 8.859375 0.109375 C 8.109375 0.109375 7.539062 -0.101562 7.15625 -0.53125 C 6.769531 -0.96875 6.578125 -1.601562 6.578125 -2.4375 C 6.578125 -2.84375 6.679688 -3.578125 6.890625 -4.640625 C 7.085938 -5.566406 7.1875 -6.207031 7.1875 -6.5625 C 7.1875 -6.800781 7.101562 -6.921875 6.9375 -6.921875 C 6.75 -6.921875 6.476562 -6.671875 6.125 -6.171875 C 5.78125 -5.679688 5.425781 -5.03125 5.0625 -4.21875 C 4.707031 -3.40625 4.421875 -2.550781 4.203125 -1.65625 C 4.035156 -0.96875 3.84375 -0.5 3.625 -0.25 C 3.414062 -0.0078125 3.082031 0.109375 2.625 0.109375 Z M 2.625 0.109375 "/></g></g></g><g fill="rgb(9.408569%, 9.408569%, 17.649841%)" fill-opacity="1"><g transform="translate(155.310537, 270.089075)"><g><path d="M 5.234375 0.125 C 3.816406 0.125 2.679688 -0.140625 1.828125 -0.671875 C 0.972656 -1.210938 0.546875 -2.039062 0.546875 -3.15625 C 0.546875 -3.738281 0.644531 -4.1875 0.84375 -4.5 C 1.050781 -4.8125 1.351562 -4.96875 1.75 -4.96875 C 2.03125 -4.96875 2.257812 -4.890625 2.4375 -4.734375 C 2.625 -4.585938 2.71875 -4.394531 2.71875 -4.15625 C 2.71875 -3.945312 2.703125 -3.765625 2.671875 -3.609375 C 2.671875 -3.566406 2.660156 -3.488281 2.640625 -3.375 C 2.628906 -3.269531 2.625 -3.160156 2.625 -3.046875 C 2.625 -2.566406 2.863281 -2.207031 3.34375 -1.96875 C 3.832031 -1.738281 4.515625 -1.625 5.390625 -1.625 C 6.304688 -1.625 7.019531 -1.785156 7.53125 -2.109375 C 8.039062 -2.429688 8.296875 -2.882812 8.296875 -3.46875 C 8.296875 -3.832031 8.175781 -4.144531 7.9375 -4.40625 C 7.707031 -4.664062 7.414062 -4.882812 7.0625 -5.0625 C 6.707031 -5.238281 6.210938 -5.457031 5.578125 -5.71875 C 4.753906 -6.039062 4.082031 -6.34375 3.5625 -6.625 C 3.039062 -6.914062 2.597656 -7.304688 2.234375 -7.796875 C 1.867188 -8.296875 1.6875 -8.914062 1.6875 -9.65625 C 1.6875 -10.425781 1.890625 -11.109375 2.296875 -11.703125 C 2.710938 -12.304688 3.304688 -12.769531 4.078125 -13.09375 C 4.847656 -13.425781 5.757812 -13.59375 6.8125 -13.59375 C 7.582031 -13.59375 8.289062 -13.476562 8.9375 -13.25 C 9.59375 -13.019531 10.113281 -12.671875 10.5 -12.203125 C 10.894531 -11.734375 11.09375 -11.15625 11.09375 -10.46875 C 11.09375 -9.800781 10.988281 -9.296875 10.78125 -8.953125 C 10.582031 -8.609375 10.285156 -8.4375 9.890625 -8.4375 C 9.617188 -8.4375 9.390625 -8.519531 9.203125 -8.6875 C 9.015625 -8.863281 8.921875 -9.070312 8.921875 -9.3125 C 8.921875 -9.507812 8.9375 -9.691406 8.96875 -9.859375 C 9 -10.179688 9.015625 -10.382812 9.015625 -10.46875 C 9.015625 -10.914062 8.796875 -11.253906 8.359375 -11.484375 C 7.921875 -11.722656 7.375 -11.84375 6.71875 -11.84375 C 5.800781 -11.84375 5.097656 -11.675781 4.609375 -11.34375 C 4.128906 -11.007812 3.890625 -10.535156 3.890625 -9.921875 C 3.890625 -9.523438 4.015625 -9.179688 4.265625 -8.890625 C 4.515625 -8.597656 4.828125 -8.351562 5.203125 -8.15625 C 5.578125 -7.96875 6.101562 -7.742188 6.78125 -7.484375 C 7.582031 -7.148438 8.226562 -6.847656 8.71875 -6.578125 C 9.21875 -6.316406 9.640625 -5.953125 9.984375 -5.484375 C 10.328125 -5.023438 10.5 -4.460938 10.5 -3.796875 C 10.5 -2.535156 10.019531 -1.566406 9.0625 -0.890625 C 8.113281 -0.210938 6.835938 0.125 5.234375 0.125 Z M 5.234375 0.125 "/></g></g></g><g fill="rgb(9.408569%, 9.408569%, 17.649841%)" fill-opacity="1"><g transform="translate(166.403924, 270.089075)"><g><path d="M 2.859375 -8.515625 C 2.410156 -8.515625 2.070312 -8.617188 1.84375 -8.828125 C 1.625 -9.035156 1.515625 -9.328125 1.515625 -9.703125 C 1.515625 -10.078125 1.660156 -10.390625 1.953125 -10.640625 C 2.253906 -10.890625 2.625 -11.015625 3.0625 -11.015625 C 3.457031 -11.015625 3.773438 -10.914062 4.015625 -10.71875 C 4.265625 -10.53125 4.390625 -10.257812 4.390625 -9.90625 C 4.390625 -9.476562 4.25 -9.140625 3.96875 -8.890625 C 3.695312 -8.640625 3.328125 -8.515625 2.859375 -8.515625 Z M 2.734375 0.078125 C 2.046875 0.078125 1.539062 -0.164062 1.21875 -0.65625 C 0.90625 -1.144531 0.75 -1.796875 0.75 -2.609375 C 0.75 -3.085938 0.8125 -3.703125 0.9375 -4.453125 C 1.0625 -5.210938 1.21875 -5.914062 1.40625 -6.5625 C 1.5 -6.90625 1.625 -7.140625 1.78125 -7.265625 C 1.945312 -7.398438 2.207031 -7.46875 2.5625 -7.46875 C 3.101562 -7.46875 3.375 -7.285156 3.375 -6.921875 C 3.375 -6.648438 3.273438 -6.03125 3.078125 -5.0625 C 2.816406 -3.882812 2.6875 -3.085938 2.6875 -2.671875 C 2.6875 -2.347656 2.726562 -2.101562 2.8125 -1.9375 C 2.90625 -1.769531 3.050781 -1.6875 3.25 -1.6875 C 3.445312 -1.6875 3.6875 -1.816406 3.96875 -2.078125 C 4.257812 -2.347656 4.644531 -2.769531 5.125 -3.34375 C 5.25 -3.5 5.394531 -3.578125 5.5625 -3.578125 C 5.695312 -3.578125 5.800781 -3.507812 5.875 -3.375 C 5.957031 -3.25 6 -3.070312 6 -2.84375 C 6 -2.414062 5.898438 -2.085938 5.703125 -1.859375 C 4.640625 -0.566406 3.648438 0.078125 2.734375 0.078125 Z M 2.734375 0.078125 "/></g></g></g><g fill="rgb(9.408569%, 9.408569%, 17.649841%)" fill-opacity="1"><g transform="translate(170.341836, 270.089075)"><g><path d="M 3.828125 0.078125 C 2.785156 0.078125 1.972656 -0.21875 1.390625 -0.8125 C 0.804688 -1.40625 0.515625 -2.1875 0.515625 -3.15625 C 0.515625 -4.019531 0.679688 -4.773438 1.015625 -5.421875 C 1.359375 -6.078125 1.800781 -6.582031 2.34375 -6.9375 C 2.894531 -7.289062 3.46875 -7.46875 4.0625 -7.46875 C 4.65625 -7.46875 5.113281 -7.289062 5.4375 -6.9375 C 5.757812 -6.59375 5.921875 -6.148438 5.921875 -5.609375 C 5.921875 -5.160156 5.820312 -4.78125 5.625 -4.46875 C 5.425781 -4.15625 5.171875 -4 4.859375 -4 C 4.648438 -4 4.484375 -4.046875 4.359375 -4.140625 C 4.242188 -4.242188 4.1875 -4.378906 4.1875 -4.546875 C 4.1875 -4.617188 4.195312 -4.703125 4.21875 -4.796875 C 4.238281 -4.898438 4.253906 -4.972656 4.265625 -5.015625 C 4.316406 -5.171875 4.34375 -5.320312 4.34375 -5.46875 C 4.34375 -5.601562 4.304688 -5.707031 4.234375 -5.78125 C 4.160156 -5.851562 4.0625 -5.890625 3.9375 -5.890625 C 3.695312 -5.890625 3.46875 -5.78125 3.25 -5.5625 C 3.039062 -5.34375 2.867188 -5.046875 2.734375 -4.671875 C 2.609375 -4.296875 2.546875 -3.882812 2.546875 -3.4375 C 2.546875 -2.195312 3.082031 -1.578125 4.15625 -1.578125 C 4.601562 -1.578125 5.078125 -1.722656 5.578125 -2.015625 C 6.085938 -2.316406 6.585938 -2.757812 7.078125 -3.34375 C 7.203125 -3.5 7.347656 -3.578125 7.515625 -3.578125 C 7.648438 -3.578125 7.753906 -3.507812 7.828125 -3.375 C 7.910156 -3.25 7.953125 -3.070312 7.953125 -2.84375 C 7.953125 -2.4375 7.851562 -2.109375 7.65625 -1.859375 C 7.15625 -1.234375 6.550781 -0.753906 5.84375 -0.421875 C 5.144531 -0.0859375 4.472656 0.078125 3.828125 0.078125 Z M 3.828125 0.078125 "/></g></g></g><g fill="rgb(9.408569%, 9.408569%, 17.649841%)" fill-opacity="1"><g transform="translate(176.232705, 270.089075)"><g><path d="M 7.90625 -3.578125 C 8.050781 -3.578125 8.160156 -3.507812 8.234375 -3.375 C 8.316406 -3.25 8.359375 -3.070312 8.359375 -2.84375 C 8.359375 -2.414062 8.257812 -2.085938 8.0625 -1.859375 C 7.664062 -1.378906 7.101562 -0.9375 6.375 -0.53125 C 5.65625 -0.125 4.882812 0.078125 4.0625 0.078125 C 2.945312 0.078125 2.078125 -0.222656 1.453125 -0.828125 C 0.835938 -1.441406 0.53125 -2.273438 0.53125 -3.328125 C 0.53125 -4.066406 0.679688 -4.753906 0.984375 -5.390625 C 1.296875 -6.023438 1.726562 -6.53125 2.28125 -6.90625 C 2.832031 -7.28125 3.453125 -7.46875 4.140625 -7.46875 C 4.765625 -7.46875 5.265625 -7.28125 5.640625 -6.90625 C 6.015625 -6.539062 6.203125 -6.039062 6.203125 -5.40625 C 6.203125 -4.675781 5.9375 -4.046875 5.40625 -3.515625 C 4.875 -2.984375 3.976562 -2.566406 2.71875 -2.265625 C 2.988281 -1.765625 3.5 -1.515625 4.25 -1.515625 C 4.726562 -1.515625 5.273438 -1.679688 5.890625 -2.015625 C 6.503906 -2.359375 7.035156 -2.800781 7.484375 -3.34375 C 7.609375 -3.5 7.75 -3.578125 7.90625 -3.578125 Z M 3.875 -5.890625 C 3.476562 -5.890625 3.144531 -5.660156 2.875 -5.203125 C 2.601562 -4.742188 2.46875 -4.191406 2.46875 -3.546875 L 2.46875 -3.5 C 3.09375 -3.65625 3.585938 -3.878906 3.953125 -4.171875 C 4.316406 -4.472656 4.5 -4.820312 4.5 -5.21875 C 4.5 -5.425781 4.441406 -5.585938 4.328125 -5.703125 C 4.210938 -5.828125 4.0625 -5.890625 3.875 -5.890625 Z M 3.875 -5.890625 "/></g></g></g><g fill="rgb(9.408569%, 9.408569%, 17.649841%)" fill-opacity="1"><g transform="translate(182.523762, 270.089075)"><g/></g></g><g fill="rgb(9.408569%, 9.408569%, 17.649841%)" fill-opacity="1"><g transform="translate(186.765823, 270.089075)"><g><path d="M 3.140625 0.078125 C 2.867188 0.078125 2.628906 0 2.421875 -0.15625 C 2.222656 -0.320312 2.125 -0.570312 2.125 -0.90625 L 2.140625 -1.09375 C 2.265625 -2.1875 2.40625 -3.328125 2.5625 -4.515625 C 2.726562 -5.710938 2.875 -6.628906 3 -7.265625 L 1.75 -6.921875 L 1.546875 -6.890625 C 1.347656 -6.890625 1.1875 -6.96875 1.0625 -7.125 C 0.945312 -7.28125 0.890625 -7.460938 0.890625 -7.671875 L 0.90625 -7.8125 C 0.925781 -8.019531 0.988281 -8.1875 1.09375 -8.3125 C 1.207031 -8.4375 1.414062 -8.5625 1.71875 -8.6875 C 2.019531 -8.820312 2.476562 -8.960938 3.09375 -9.109375 L 3.765625 -9.265625 C 4.003906 -9.328125 4.207031 -9.359375 4.375 -9.359375 C 4.6875 -9.359375 4.914062 -9.273438 5.0625 -9.109375 C 5.21875 -8.953125 5.296875 -8.726562 5.296875 -8.4375 C 5.296875 -8.3125 5.28125 -8.175781 5.25 -8.03125 C 5.082031 -7.195312 4.757812 -4.820312 4.28125 -0.90625 C 4.1875 -0.25 3.804688 0.078125 3.140625 0.078125 Z M 3.140625 0.078125 "/></g></g></g><g fill="rgb(9.408569%, 9.408569%, 17.649841%)" fill-opacity="1"><g transform="translate(192.784751, 270.089075)"><g><path d="M 4.6875 -9.359375 C 5.789062 -9.359375 6.632812 -9.007812 7.21875 -8.3125 C 7.800781 -7.625 8.09375 -6.675781 8.09375 -5.46875 C 8.09375 -4.375 7.90625 -3.40625 7.53125 -2.5625 C 7.164062 -1.726562 6.644531 -1.078125 5.96875 -0.609375 C 5.289062 -0.148438 4.5 0.078125 3.59375 0.078125 C 2.769531 0.078125 2.09375 -0.109375 1.5625 -0.484375 C 1.03125 -0.867188 0.726562 -1.367188 0.65625 -1.984375 L 0.640625 -2.15625 C 0.640625 -2.4375 0.726562 -2.65625 0.90625 -2.8125 C 1.082031 -2.96875 1.332031 -3.046875 1.65625 -3.046875 C 1.882812 -3.046875 2.070312 -2.984375 2.21875 -2.859375 C 2.363281 -2.734375 2.488281 -2.519531 2.59375 -2.21875 C 2.675781 -2 2.816406 -1.820312 3.015625 -1.6875 C 3.210938 -1.5625 3.460938 -1.5 3.765625 -1.5 C 4.378906 -1.5 4.878906 -1.742188 5.265625 -2.234375 C 5.660156 -2.722656 5.90625 -3.445312 6 -4.40625 C 5.726562 -4.082031 5.414062 -3.851562 5.0625 -3.71875 C 4.707031 -3.582031 4.316406 -3.515625 3.890625 -3.515625 C 3.359375 -3.515625 2.878906 -3.628906 2.453125 -3.859375 C 2.035156 -4.085938 1.707031 -4.398438 1.46875 -4.796875 C 1.238281 -5.191406 1.125 -5.640625 1.125 -6.140625 C 1.125 -6.742188 1.265625 -7.285156 1.546875 -7.765625 C 1.828125 -8.253906 2.238281 -8.640625 2.78125 -8.921875 C 3.320312 -9.210938 3.957031 -9.359375 4.6875 -9.359375 Z M 4.375 -5.125 C 4.832031 -5.125 5.1875 -5.25 5.4375 -5.5 C 5.695312 -5.757812 5.828125 -6.101562 5.828125 -6.53125 C 5.828125 -6.914062 5.71875 -7.21875 5.5 -7.4375 C 5.289062 -7.664062 4.992188 -7.78125 4.609375 -7.78125 C 4.179688 -7.78125 3.835938 -7.644531 3.578125 -7.375 C 3.316406 -7.101562 3.1875 -6.75 3.1875 -6.3125 C 3.1875 -5.945312 3.289062 -5.65625 3.5 -5.4375 C 3.71875 -5.226562 4.007812 -5.125 4.375 -5.125 Z M 4.375 -5.125 "/></g></g></g><g fill="rgb(9.408569%, 9.408569%, 17.649841%)" fill-opacity="1"><g transform="translate(201.444964, 270.089075)"><g><path d="M 4.6875 -9.359375 C 5.789062 -9.359375 6.632812 -9.007812 7.21875 -8.3125 C 7.800781 -7.625 8.09375 -6.675781 8.09375 -5.46875 C 8.09375 -4.375 7.90625 -3.40625 7.53125 -2.5625 C 7.164062 -1.726562 6.644531 -1.078125 5.96875 -0.609375 C 5.289062 -0.148438 4.5 0.078125 3.59375 0.078125 C 2.769531 0.078125 2.09375 -0.109375 1.5625 -0.484375 C 1.03125 -0.867188 0.726562 -1.367188 0.65625 -1.984375 L 0.640625 -2.15625 C 0.640625 -2.4375 0.726562 -2.65625 0.90625 -2.8125 C 1.082031 -2.96875 1.332031 -3.046875 1.65625 -3.046875 C 1.882812 -3.046875 2.070312 -2.984375 2.21875 -2.859375 C 2.363281 -2.734375 2.488281 -2.519531 2.59375 -2.21875 C 2.675781 -2 2.816406 -1.820312 3.015625 -1.6875 C 3.210938 -1.5625 3.460938 -1.5 3.765625 -1.5 C 4.378906 -1.5 4.878906 -1.742188 5.265625 -2.234375 C 5.660156 -2.722656 5.90625 -3.445312 6 -4.40625 C 5.726562 -4.082031 5.414062 -3.851562 5.0625 -3.71875 C 4.707031 -3.582031 4.316406 -3.515625 3.890625 -3.515625 C 3.359375 -3.515625 2.878906 -3.628906 2.453125 -3.859375 C 2.035156 -4.085938 1.707031 -4.398438 1.46875 -4.796875 C 1.238281 -5.191406 1.125 -5.640625 1.125 -6.140625 C 1.125 -6.742188 1.265625 -7.285156 1.546875 -7.765625 C 1.828125 -8.253906 2.238281 -8.640625 2.78125 -8.921875 C 3.320312 -9.210938 3.957031 -9.359375 4.6875 -9.359375 Z M 4.375 -5.125 C 4.832031 -5.125 5.1875 -5.25 5.4375 -5.5 C 5.695312 -5.757812 5.828125 -6.101562 5.828125 -6.53125 C 5.828125 -6.914062 5.71875 -7.21875 5.5 -7.4375 C 5.289062 -7.664062 4.992188 -7.78125 4.609375 -7.78125 C 4.179688 -7.78125 3.835938 -7.644531 3.578125 -7.375 C 3.316406 -7.101562 3.1875 -6.75 3.1875 -6.3125 C 3.1875 -5.945312 3.289062 -5.65625 3.5 -5.4375 C 3.71875 -5.226562 4.007812 -5.125 4.375 -5.125 Z M 4.375 -5.125 "/></g></g></g><g fill="rgb(9.408569%, 9.408569%, 17.649841%)" fill-opacity="1"><g transform="translate(210.105177, 270.089075)"><g><path d="M 7.984375 -3.609375 C 8.554688 -3.609375 8.84375 -3.363281 8.84375 -2.875 C 8.84375 -2.5 8.734375 -2.234375 8.515625 -2.078125 C 8.304688 -1.929688 7.972656 -1.859375 7.515625 -1.859375 L 7.171875 -1.859375 L 7.109375 -1.015625 C 7.078125 -0.515625 6.972656 -0.179688 6.796875 -0.015625 C 6.617188 0.148438 6.332031 0.234375 5.9375 0.234375 C 5.375 0.234375 5.09375 -0.109375 5.09375 -0.796875 C 5.09375 -0.921875 5.097656 -1.015625 5.109375 -1.078125 L 5.1875 -1.859375 C 3.632812 -1.859375 2.460938 -1.863281 1.671875 -1.875 C 1.429688 -1.875 1.21875 -1.976562 1.03125 -2.1875 C 0.851562 -2.40625 0.765625 -2.6875 0.765625 -3.03125 C 0.765625 -3.226562 0.800781 -3.441406 0.875 -3.671875 C 1.34375 -5.035156 2.050781 -6.585938 3 -8.328125 C 3.195312 -8.703125 3.398438 -8.96875 3.609375 -9.125 C 3.816406 -9.28125 4.140625 -9.359375 4.578125 -9.359375 C 4.816406 -9.359375 4.992188 -9.300781 5.109375 -9.1875 C 5.234375 -9.082031 5.296875 -8.945312 5.296875 -8.78125 C 5.296875 -8.59375 5.242188 -8.410156 5.140625 -8.234375 C 4.097656 -6.316406 3.363281 -4.773438 2.9375 -3.609375 L 5.390625 -3.609375 C 5.523438 -4.597656 5.703125 -5.539062 5.921875 -6.4375 C 6.003906 -6.769531 6.140625 -7.023438 6.328125 -7.203125 C 6.523438 -7.378906 6.796875 -7.46875 7.140625 -7.46875 C 7.679688 -7.46875 7.953125 -7.234375 7.953125 -6.765625 C 7.953125 -6.617188 7.941406 -6.507812 7.921875 -6.4375 C 7.734375 -5.53125 7.566406 -4.585938 7.421875 -3.609375 Z M 7.984375 -3.609375 "/></g></g></g></svg>